<svg xmlns="http://www.w3.org/2000/svg" xml:space="preserve" viewBox="0 0 612 612">
  <linearGradient id="a" x1="396" x2="396" y1="0" y2="456" gradientTransform="translate(-179)" gradientUnits="userSpaceOnUse">
    <stop offset="0" stop-color="#71CDE1"/>
    <stop offset="1" stop-color="#F4F3B4"/>
  </linearGradient>
  <path fill="url(#a)" d="M-179 0h792v456h-792z"/>
  <radialGradient id="b" cx="421.3" cy="280.7" r="55.7" gradientTransform="translate(-213 -161)" gradientUnits="userSpaceOnUse">
    <stop offset="0" stop-color="#F4F3B0"/>
    <stop offset="1" stop-color="#F9ED32"/>
  </radialGradient>
  <circle cx="208" cy="119.3" r="55.7" fill="url(#b)"/>
  <linearGradient id="c" x1="217.2" x2="217.2" y1="110.9" y2="263" gradientTransform="translate(-179)" gradientUnits="userSpaceOnUse">
    <stop offset="0" stop-color="#fff"/>
    <stop offset="1" stop-color="#F4F3B4"/>
  </linearGradient>
  <path fill="url(#c)" d="M-102 253c-17-4-28-20-24-37 3-17 20-28 37-25a21 21 0 0 1 41-9c0-3-3-18 7-33 9-14 24-18 27-19 2-10 10-18 20-19 11-1 22 7 24 19 17-6 35-1 45 12 9 11 10 26 5 40 7-11 19-17 32-15s23 13 25 26c0 0 14-8 27 0 9 5 14 16 13 27 5-7 13-9 19-6s8 12 6 19c-7 25-83 28-83 28s-49 2-99 2c-48 0-72-3-82-4a590 590 0 0 1-40-6z" opacity=".7"/>
  <linearGradient id="d" x1="663.6" x2="663.6" y1="29.9" y2="105.9" gradientTransform="translate(-179)" gradientUnits="userSpaceOnUse">
    <stop offset="0" stop-color="#fff"/>
    <stop offset="1" stop-color="#F4F3B4"/>
  </linearGradient>
  <path fill="url(#d)" d="M393 101c-11-2-18-10-16-18 2-9 13-15 25-13-1-5 4-10 11-12 6-1 13 2 16 7-1-1-2-9 4-16s15-9 17-10c2-5 7-9 13-9 8-1 15 3 16 9 11-2 23 0 29 6s7 14 4 20c4-5 12-8 21-7 8 1 15 6 16 13 0 0 9-4 18 0 6 3 9 8 8 13 3-3 9-4 12-3 4 2 6 7 5 10-5 12-55 14-55 14l-64 1a642 642 0 0 1-80-5z" opacity=".8"/>
  <linearGradient id="e" x1="-1324.2" x2="-1324.2" y1="55.9" y2="122" gradientTransform="matrix(-1.1403 0 0 1 -1133 0)" gradientUnits="userSpaceOnUse">
    <stop offset="0" stop-color="#fff"/>
    <stop offset="1" stop-color="#F4F3B4"/>
  </linearGradient>
  <path fill="url(#e)" d="M439 118c8-2 13-9 11-16-1-8-9-13-16-11 0-5-3-9-8-10s-9 1-11 6c0-2 2-8-3-15-4-6-10-7-12-8-1-4-4-8-9-8-5-1-10 3-11 8-7-2-15 0-19 5s-5 12-3 18c-3-5-8-8-14-7s-10 6-11 12c0-1-6-4-12 0-4 2-7 7-6 11-2-3-6-4-8-2-3 1-4 5-3 8 3 11 37 12 37 12a992 992 0 0 0 81-1l17-2z" opacity=".9"/>
  <linearGradient id="f" x1="248.5" x2="248.5" y1="327.5" y2="383.6" gradientTransform="translate(-179)" gradientUnits="userSpaceOnUse">
    <stop offset="0" stop-color="#fff"/>
    <stop offset="1" stop-color="#F4F3B4"/>
  </linearGradient>
  <path fill="url(#f)" d="M4 380c-7-2-12-8-11-14 2-6 9-10 17-9 0-4 3-8 8-9 5 0 10 2 12 6-1-1-2-7 3-13 4-5 11-6 12-7 1-3 5-6 9-7 6 0 11 3 12 7 7-2 16 0 20 5 4 4 5 9 3 14 3-4 9-6 15-5s10 5 11 10c0 0 7-3 13 0 4 2 6 6 6 10 2-3 6-4 8-3 3 1 4 5 3 7-3 10-38 11-38 11H61l-38-1-19-2z" opacity=".8"/>
  <linearGradient id="g" x1="77" x2="77" y1="299.9" y2="355.9" gradientTransform="translate(-179)" gradientUnits="userSpaceOnUse">
    <stop offset="0" stop-color="#fff"/>
    <stop offset="1" stop-color="#F4F3B4"/>
  </linearGradient>
  <path fill="url(#g)" d="M-167 352c-8-1-13-7-11-13 1-7 9-11 17-10-1-4 3-7 8-8s10 1 11 5c0-1-1-7 3-12 5-6 11-7 13-7 1-4 4-7 9-7 5-1 10 2 11 7 8-2 16-1 21 4 4 4 5 10 2 15 3-4 9-7 15-6s11 5 12 10c0 0 6-3 12 0 4 2 7 6 6 10 2-3 6-3 9-2s4 4 3 7c-3 9-39 10-39 10l-46 1a390 390 0 0 1-56-4z" opacity=".8"/>
  <linearGradient id="h" x1="598.5" x2="598.5" y1="288.9" y2="345" gradientTransform="translate(-179)" gradientUnits="userSpaceOnUse">
    <stop offset="0" stop-color="#fff"/>
    <stop offset="1" stop-color="#F4F3B4"/>
  </linearGradient>
  <path fill="url(#h)" d="M354 341c-7-1-12-7-11-13 2-7 9-11 17-10 0-4 3-7 8-8s10 1 12 5c-1-1-2-7 3-12 4-5 11-7 12-7 1-4 5-7 9-7 6-1 11 2 12 7 7-2 16 0 20 4s5 10 3 15c3-4 9-6 15-6 6 1 10 5 11 10 0 0 7-3 13 0 4 2 6 6 6 10 2-3 6-3 8-2 3 1 4 4 3 7-3 9-38 10-38 10l-46 1c-22 0-33-1-38-2l-19-2z" opacity=".8"/>
  <linearGradient id="i" x1="532.9" x2="532.9" y1="293.3" y2="369.4" gradientTransform="translate(-179)" gradientUnits="userSpaceOnUse">
    <stop offset="0" stop-color="#fff"/>
    <stop offset="1" stop-color="#F4F3B4"/>
  </linearGradient>
  <path fill="url(#i)" d="M258 364c-12-2-19-10-17-18 2-9 14-14 26-13-1-5 4-10 11-11 8-1 15 2 17 7 0-2-2-9 5-17 6-7 16-9 18-9 1-5 7-9 14-10 8 0 15 4 17 10 11-3 23-1 30 6 6 5 7 13 3 20 5-6 14-9 22-8 9 2 16 7 17 13 1 0 10-3 19 0 6 3 10 8 9 14 3-3 9-5 13-3 4 1 6 6 4 9-5 13-57 14-57 14s-33 2-68 1a705 705 0 0 1-83-5z" opacity=".8"/>
  <linearGradient id="j" x1="-1296.1" x2="-1296.1" y1="288" y2="488.4" gradientTransform="matrix(-1 0 0 1 -1079 0)" gradientUnits="userSpaceOnUse">
    <stop offset="0" stop-color="#97BF9D"/>
    <stop offset="1" stop-color="#009EDD"/>
  </linearGradient>
  <path fill="url(#j)" d="m613 380-11-13c0 1 1 12-5 20-5 7-12 6-13 6-2 0-15 1-24-12-4-5-5-10-6-14l-17 13a370 370 0 0 0-104-92c-5 13-18 42-45 63a91 91 0 0 1-59 20c-4-1-10-4-15-11l-5-10c-8 13-22 31-42 45-24 18-76 28-82 21-9-10-9-25-9-26l-24 30a251 251 0 0 0-96-66c-12 13-48 49-91 56-20 3-43 10-53-7-8-14-5-35-3-45a372 372 0 0 0-66 62c-6-2-22-13-22-13v81l792-4"/>
  <linearGradient id="k" x1="396" x2="396" y1="327" y2="467" gradientTransform="translate(-179)" gradientUnits="userSpaceOnUse">
    <stop offset="0" stop-color="#BCDDA3"/>
    <stop offset="1" stop-color="#6CB49E"/>
  </linearGradient>
  <path fill="url(#k)" d="m-179 392 12-10c0 1-1 9 5 14 5 5 12 4 13 4 2 0 14 1 23-8 3-3 5-7 6-10l16 9A315 315 0 0 1-3 327a113 113 0 0 0 102 58 30 30 0 0 0 19-15c8 9 21 22 41 32 23 12 74 19 80 14 8-7 8-17 8-18l24 21a242 242 0 0 1 93-46c11 9 47 34 89 39 19 2 41 7 51-5 8-10 5-24 3-31a347 347 0 0 1 64 43c6-1 13-4 21-9l21-10v67l-792-3"/>
  <linearGradient id="l" x1="396" x2="396" y1="392.8" y2="555.4" gradientTransform="translate(-179)" gradientUnits="userSpaceOnUse">
    <stop offset="0" stop-color="#FFF33B"/>
    <stop offset=".1" stop-color="#E8E637"/>
    <stop offset=".1" stop-color="#D0DD35"/>
    <stop offset=".2" stop-color="#BED734"/>
    <stop offset=".2" stop-color="#B4D335"/>
    <stop offset=".3" stop-color="#B0D235"/>
    <stop offset="1" stop-color="#5B8828"/>
  </linearGradient>
  <path fill="url(#l)" d="M-179 418c20-9 44-17 72-22 80-13 135 14 225 36 42 10 100 16 216 27 123 12 279 21 279 21v38s-779 34-792 37z"/>
  <linearGradient id="m" x1="396.3" x2="396.3" y1="445.9" y2="578.6" gradientTransform="translate(-179)" gradientUnits="userSpaceOnUse">
    <stop offset="0" stop-color="#FFF33B"/>
    <stop offset=".1" stop-color="#E8E637"/>
    <stop offset=".1" stop-color="#D0DD35"/>
    <stop offset=".2" stop-color="#BED734"/>
    <stop offset=".2" stop-color="#B4D335"/>
    <stop offset=".3" stop-color="#B0D235"/>
    <stop offset="1" stop-color="#5B8828"/>
  </linearGradient>
  <path fill="url(#m)" d="M-179 453c70 21 192 53 334 24l37-9c132-31 421-20 421-20v95S76 648-177 500c-2-33-1-3-1-40l-1-6z"/>
  <linearGradient id="n" x1="396.5" x2="396.5" y1="500.7" y2="612" gradientTransform="translate(-179)" gradientUnits="userSpaceOnUse">
    <stop offset="0" stop-color="#FFF33B"/>
    <stop offset=".1" stop-color="#E8E637"/>
    <stop offset=".1" stop-color="#D0DD35"/>
    <stop offset=".2" stop-color="#BED734"/>
    <stop offset=".2" stop-color="#B4D335"/>
    <stop offset=".3" stop-color="#B0D235"/>
    <stop offset="1" stop-color="#5B8828"/>
  </linearGradient>
  <path fill="url(#n)" d="M613 501a3309 3309 0 0 1-791 0v111h791z"/>
</svg>
