<svg xmlns="http://www.w3.org/2000/svg" xml:space="preserve" viewBox="0 0 612 612">
  <linearGradient id="a" x1="396" x2="396" y1="0" y2="456" gradientTransform="translate(-179)" gradientUnits="userSpaceOnUse">
    <stop offset="0" stop-color="#53093B"/>
    <stop offset=".3" stop-color="#D41E44"/>
    <stop offset=".9" stop-color="#FAA61A"/>
    <stop offset="1" stop-color="#FFD800"/>
  </linearGradient>
  <path fill="url(#a)" d="M-179 0h792v456h-792z"/>
  <radialGradient id="b" cx="647.7" cy="284.3" r="55.7" gradientTransform="translate(-136 74)" gradientUnits="userSpaceOnUse">
    <stop offset="0" stop-color="#F4F3B0"/>
    <stop offset="1" stop-color="#F9ED32"/>
  </radialGradient>
  <circle cx="511.9" cy="358.3" r="55.7" fill="url(#b)"/>
  <linearGradient id="c" x1="217.2" x2="217.2" y1="110.9" y2="263" gradientTransform="translate(-179)" gradientUnits="userSpaceOnUse">
    <stop offset="0" stop-color="#FFF45F"/>
    <stop offset="1" stop-color="#EA9A97"/>
  </linearGradient>
  <path fill="url(#c)" d="M-102 253c-16-4-27-20-24-37s20-28 37-25c-1-11 7-21 17-23 11-2 21 4 25 14-1-3-3-18 6-33 10-14 24-18 27-19 2-10 10-18 20-19 11-1 22 7 25 19a39 39 0 0 1 49 52c7-11 20-17 32-15 13 2 23 13 25 26 1 0 14-8 27 0 9 5 15 16 13 27 5-7 13-9 19-6s9 12 7 19c-7 25-84 28-84 28s-48 2-99 2c-48 0-71-3-82-4a590 590 0 0 1-40-6z" opacity=".7"/>
  <linearGradient id="d" x1="663.6" x2="663.6" y1="29.9" y2="105.9" gradientTransform="translate(-179)" gradientUnits="userSpaceOnUse">
    <stop offset="0" stop-color="#FFF45F"/>
    <stop offset="1" stop-color="#EA9A97"/>
  </linearGradient>
  <path fill="url(#d)" d="M393 101c-10-2-17-10-15-18 2-9 13-15 24-13-1-5 4-10 11-12 7-1 14 2 16 7 0-1-2-9 4-16s16-9 18-10c1-5 7-9 13-9 7-1 14 3 16 9 10-2 22 0 29 6 6 6 7 14 3 20 4-5 13-8 21-7s15 6 16 13c1 0 9-4 18 0 6 3 9 8 8 13 4-3 9-4 13-3 4 2 5 7 4 10-5 12-54 14-54 14l-65 1a642 642 0 0 1-80-5z" opacity=".8"/>
  <linearGradient id="e" x1="-1324.2" x2="-1324.2" y1="55.9" y2="122" gradientTransform="matrix(-1.1403 0 0 1 -1133 0)" gradientUnits="userSpaceOnUse">
    <stop offset="0" stop-color="#FFF45F"/>
    <stop offset="1" stop-color="#EA9A97"/>
  </linearGradient>
  <path fill="url(#e)" d="M440 118c7-2 12-9 11-16-2-8-9-13-17-11 0-5-3-9-8-10-4-1-9 1-11 6 1-2 2-8-2-15-5-6-11-7-12-8-1-4-5-8-9-8-5-1-10 3-11 8-7-2-15 0-20 5-4 5-5 12-2 18-3-5-9-8-15-7-5 1-10 6-11 12 0-1-6-4-12 0-4 2-6 7-6 11-2-3-5-4-8-2-3 1-4 5-3 8 3 11 37 12 37 12a992 992 0 0 0 81-1l18-2z" opacity=".9"/>
  <linearGradient id="f" x1="248.5" x2="248.5" y1="327.5" y2="383.6" gradientTransform="translate(-179)" gradientUnits="userSpaceOnUse">
    <stop offset="0" stop-color="#FFF45F"/>
    <stop offset="1" stop-color="#EA9A97"/>
  </linearGradient>
  <path fill="url(#f)" d="M5 380c-8-2-13-8-11-14 1-6 9-10 17-9-1-4 3-8 8-9 5 0 10 2 11 6 0-1-1-7 3-13 4-5 11-6 13-7 0-3 4-6 9-7 5 0 10 3 11 7 8-2 16 0 21 5 4 4 5 9 2 14 3-4 9-6 15-5s11 5 12 10c0 0 6-3 12 0 4 2 7 6 6 10 2-3 6-4 9-3s4 5 3 7c-3 10-39 11-39 11H61l-38-1-18-2z" opacity=".8"/>
  <linearGradient id="g" x1="77" x2="77" y1="299.9" y2="355.9" gradientTransform="translate(-179)" gradientUnits="userSpaceOnUse">
    <stop offset="0" stop-color="#FFF45F"/>
    <stop offset="1" stop-color="#EA9A97"/>
  </linearGradient>
  <path fill="url(#g)" d="M-167 352c-7-1-12-7-11-13 2-7 9-11 17-10 0-4 3-7 8-8s10 1 12 5c-1-1-2-7 3-12 4-6 11-7 12-7 1-4 5-7 9-7 6-1 11 2 12 7 7-2 16-1 20 4 4 4 5 10 3 15 3-4 9-7 14-6 6 1 11 5 12 10 0 0 7-3 13 0 4 2 6 6 6 10 2-3 6-3 8-2 3 1 4 4 3 7-3 9-38 10-38 10l-46 1a390 390 0 0 1-57-4z" opacity=".8"/>
  <linearGradient id="h" x1="598.5" x2="598.5" y1="288.9" y2="345" gradientTransform="translate(-179)" gradientUnits="userSpaceOnUse">
    <stop offset="0" stop-color="#FFF45F"/>
    <stop offset="1" stop-color="#EA9A97"/>
  </linearGradient>
  <path fill="url(#h)" d="M355 341c-8-1-13-7-11-13 1-7 9-11 17-10-1-4 3-7 8-8s10 1 11 5c0-1-1-7 3-12s11-7 13-7c0-4 4-7 9-7 5-1 10 2 11 7 8-2 16 0 21 4 4 4 5 10 2 15 3-4 9-6 15-6 6 1 11 5 12 10 0 0 6-3 12 0 4 2 7 6 6 10 2-3 6-3 9-2s4 4 3 7c-3 9-39 10-39 10l-46 1c-22 0-33-1-38-2l-18-2z" opacity=".8"/>
  <linearGradient id="i" x1="532.9" x2="532.9" y1="293.3" y2="369.4" gradientTransform="translate(-179)" gradientUnits="userSpaceOnUse">
    <stop offset="0" stop-color="#FFF45F"/>
    <stop offset="1" stop-color="#EA9A97"/>
  </linearGradient>
  <path fill="url(#i)" d="M258 364c-11-2-18-10-16-18 2-9 13-14 25-13-1-5 5-10 12-11s14 2 17 7c-1-2-3-9 4-17 6-7 16-9 19-9 1-5 7-9 13-10 8 0 15 4 17 10 11-3 23-1 30 6 6 5 8 13 4 20 4-6 13-9 22-8 9 2 16 7 17 13 0 0 9-3 18 0 7 3 10 8 9 14 4-3 9-5 13-3 4 1 6 6 5 9-5 13-57 14-57 14s-34 2-68 1a705 705 0 0 1-84-5z" opacity=".8"/>
  <linearGradient id="j" x1="-1296.1" x2="-1296.1" y1="288" y2="488.4" gradientTransform="matrix(-1 0 0 1 -1079 0)" gradientUnits="userSpaceOnUse">
    <stop offset="0" stop-color="#F5887B"/>
    <stop offset="1" stop-color="#484A9F"/>
  </linearGradient>
  <path fill="url(#j)" d="m613 380-10-13c0 1 1 12-6 20-5 7-12 6-13 6-2 0-15 1-24-12l-6-14-16 13a370 370 0 0 0-104-92c-5 13-19 42-45 63a91 91 0 0 1-60 20c-3-1-9-4-14-11l-6-10c-8 13-22 31-42 45-24 18-76 28-82 21-9-10-8-25-8-26l-25 30a251 251 0 0 0-96-66c-11 13-48 49-91 56-20 3-42 10-52-7-9-14-5-35-4-45a372 372 0 0 0-65 62c-6-2-22-13-22-13l-1 81 792-4"/>
  <linearGradient id="k" x1="396" x2="396" y1="327" y2="467" gradientTransform="translate(-179)" gradientUnits="userSpaceOnUse">
    <stop offset="0" stop-color="#A65F67"/>
    <stop offset="1" stop-color="#4A0E37"/>
  </linearGradient>
  <path fill="url(#k)" d="m-179 392 12-10c0 1-1 9 5 14s12 4 13 4c2 0 15 1 23-8 4-3 5-7 6-10l16 9A315 315 0 0 1-3 327a113 113 0 0 0 102 58 30 30 0 0 0 19-15c8 9 22 22 41 32 24 12 74 19 80 14 9-7 8-17 8-18l24 21a242 242 0 0 1 93-46c12 9 47 34 89 39 20 2 41 7 51-5 8-10 5-24 3-31a347 347 0 0 1 64 43c6-1 14-4 22-9l20-10v67l-792-3"/>
  <linearGradient id="l" x1="396" x2="396" y1="392.8" y2="555.4" gradientTransform="translate(-179)" gradientUnits="userSpaceOnUse">
    <stop offset="0" stop-color="#76234F"/>
    <stop offset=".1" stop-color="#691B45"/>
    <stop offset=".2" stop-color="#520933"/>
    <stop offset=".3" stop-color="#400025"/>
    <stop offset=".4" stop-color="#38001D"/>
    <stop offset=".4" stop-color="#33001D"/>
    <stop offset=".5" stop-color="#29001E"/>
    <stop offset=".6" stop-color="#20001F"/>
    <stop offset=".7" stop-color="#190020"/>
    <stop offset=".8" stop-color="#150020"/>
    <stop offset=".8" stop-color="#130020"/>
  </linearGradient>
  <path fill="url(#l)" d="M-178 418c19-9 43-17 71-22 81-13 136 14 225 36 43 10 100 16 216 27 123 12 279 21 279 21v38s-779 34-792 37z"/>
  <linearGradient id="m" x1="396.3" x2="396.3" y1="445.9" y2="578.6" gradientTransform="translate(-179)" gradientUnits="userSpaceOnUse">
    <stop offset="0" stop-color="#76234F"/>
    <stop offset=".1" stop-color="#691B45"/>
    <stop offset=".2" stop-color="#520933"/>
    <stop offset=".3" stop-color="#400025"/>
    <stop offset=".4" stop-color="#38001D"/>
    <stop offset=".4" stop-color="#33001D"/>
    <stop offset=".5" stop-color="#29001E"/>
    <stop offset=".6" stop-color="#20001F"/>
    <stop offset=".7" stop-color="#190020"/>
    <stop offset=".8" stop-color="#150020"/>
    <stop offset=".8" stop-color="#130020"/>
  </linearGradient>
  <path fill="url(#m)" d="M-178 453c70 21 191 53 334 24l37-9c131-31 420-20 420-20v95S76 648-177 500c-2-33 0-3-1-40v-6z"/>
  <linearGradient id="n" x1="396.5" x2="396.5" y1="500.7" y2="612" gradientTransform="translate(-179)" gradientUnits="userSpaceOnUse">
    <stop offset="0" stop-color="#76234F"/>
    <stop offset=".1" stop-color="#691B45"/>
    <stop offset=".2" stop-color="#520933"/>
    <stop offset=".3" stop-color="#400025"/>
    <stop offset=".4" stop-color="#38001D"/>
    <stop offset=".4" stop-color="#33001D"/>
    <stop offset=".5" stop-color="#29001E"/>
    <stop offset=".6" stop-color="#20001F"/>
    <stop offset=".7" stop-color="#190020"/>
    <stop offset=".8" stop-color="#150020"/>
    <stop offset=".8" stop-color="#130020"/>
  </linearGradient>
  <path fill="url(#n)" d="M613 501a3309 3309 0 0 1-791 0v111h791z"/>
</svg>
