<svg xmlns="http://www.w3.org/2000/svg" xml:space="preserve" viewBox="0 0 612 612">
  <linearGradient id="a" x1="396" x2="396" y1="0" y2="456" gradientTransform="translate(-179)" gradientUnits="userSpaceOnUse">
    <stop offset="0" stop-color="#202B48"/>
    <stop offset=".3" stop-color="#5B72A6"/>
    <stop offset=".5" stop-color="#977AA6"/>
    <stop offset=".7" stop-color="#D19EAF"/>
    <stop offset="1" stop-color="#F4F3B4"/>
  </linearGradient>
  <path fill="url(#a)" d="M-179 0h792v456h-792z"/>
  <radialGradient id="b" cx="364.4" cy="411.3" r="55.7" gradientTransform="translate(-261 7)" gradientUnits="userSpaceOnUse">
    <stop offset="0" stop-color="#F4F3B0"/>
    <stop offset="1" stop-color="#F9ED32"/>
  </radialGradient>
  <circle cx="103.7" cy="418.7" r="55.7" fill="url(#b)"/>
  <linearGradient id="c" x1="217.2" x2="217.2" y1="110.9" y2="263" gradientTransform="translate(-179)" gradientUnits="userSpaceOnUse">
    <stop offset="0" stop-color="#BA9BC9"/>
    <stop offset="1" stop-color="#F4F3B4"/>
  </linearGradient>
  <path fill="url(#c)" d="M-102 253c-16-4-27-20-24-37s20-28 37-25c-1-11 7-21 17-23 11-2 21 4 25 14-1-3-3-18 6-33 10-14 24-18 27-19 2-10 11-18 20-19 12-1 22 7 25 19a39 39 0 0 1 49 52c7-11 20-17 32-15 13 2 23 13 25 26 1 0 14-8 27 0 10 5 15 16 13 27 5-7 14-9 19-6 6 3 9 12 7 19-7 25-84 28-84 28s-48 2-99 2c-47 0-71-3-82-4a590 590 0 0 1-40-6z" opacity=".7"/>
  <linearGradient id="d" x1="663.6" x2="663.6" y1="29.9" y2="106" gradientTransform="translate(-179)" gradientUnits="userSpaceOnUse">
    <stop offset="0" stop-color="#BA9BC9"/>
    <stop offset="1" stop-color="#F4F3B4"/>
  </linearGradient>
  <path fill="url(#d)" d="M394 101c-11-2-18-10-16-18 2-9 13-15 24-13-1-5 4-10 11-11 7-2 14 1 16 7 0-2-2-10 4-17s16-9 18-9c1-6 7-9 13-10 7 0 14 4 16 10 10-3 22-1 29 6 6 5 7 13 3 19 5-5 13-8 21-7 9 1 15 6 16 13 1 0 10-4 18 0 6 3 9 8 9 14 3-4 8-5 12-3 4 1 5 6 4 9-4 13-54 14-54 14l-65 1a642 642 0 0 1-79-5z" opacity=".8"/>
  <linearGradient id="e" x1="267.4" x2="267.4" y1="55.9" y2="122" gradientTransform="matrix(-1.1403 0 0 1 682 0)" gradientUnits="userSpaceOnUse">
    <stop offset="0" stop-color="#BA9BC9"/>
    <stop offset="1" stop-color="#F4F3B4"/>
  </linearGradient>
  <path fill="url(#e)" d="M440 118c7-2 12-9 11-16-2-8-9-13-17-11 1-5-3-9-7-10-5-1-10 1-11 6 0-2 1-8-3-15-4-6-11-7-12-8-1-4-5-8-9-8-5-1-10 3-11 8-7-2-15 0-20 5-4 5-5 12-2 18-3-5-9-8-14-7-6 1-11 6-12 12 0-1-6-4-12 0-4 2-6 7-5 11-3-3-6-4-9-2-3 1-4 5-3 8 3 11 37 12 37 12a992 992 0 0 0 81-1l18-2z" opacity=".9"/>
  <linearGradient id="f" x1="248.5" x2="248.5" y1="327.6" y2="383.6" gradientTransform="translate(-179)" gradientUnits="userSpaceOnUse">
    <stop offset="0" stop-color="#BA9BC9"/>
    <stop offset="1" stop-color="#F4F3B4"/>
  </linearGradient>
  <path fill="url(#f)" d="M5 380c-8-2-13-8-11-14 1-6 9-10 17-9-1-4 3-8 8-9 5 0 10 2 11 6 0-1-1-7 3-13 5-5 11-6 13-7 1-3 4-6 9-7 5 0 10 3 11 7 8-2 16 0 21 5 4 4 5 9 2 14 3-4 9-6 15-5s11 5 12 10c0 0 6-3 12 0 4 2 7 6 6 10 2-3 6-4 9-3s4 5 3 7c-3 10-39 11-39 11H61a390 390 0 0 1-56-3z" opacity=".8"/>
  <linearGradient id="g" x1="77" x2="77" y1="299.9" y2="356" gradientTransform="translate(-179)" gradientUnits="userSpaceOnUse">
    <stop offset="0" stop-color="#BA9BC9"/>
    <stop offset="1" stop-color="#F4F3B4"/>
  </linearGradient>
  <path fill="url(#g)" d="M-167 352c-7-1-12-7-11-13 2-7 9-11 17-10 0-4 3-7 8-8s10 1 12 5c-1-1-2-7 3-12 4-5 11-7 12-7 1-4 5-7 9-7 6-1 11 2 12 7 7-2 16 0 20 4s5 10 3 15c3-4 9-6 15-6 6 1 10 5 11 10 0 0 7-3 13 0 4 2 6 6 6 10 2-3 6-3 8-2 3 1 4 4 3 7-3 9-38 10-38 10l-46 1c-22 0-33-1-38-2l-19-2z" opacity=".8"/>
  <linearGradient id="h" x1="598.5" x2="598.5" y1="289" y2="345" gradientTransform="translate(-179)" gradientUnits="userSpaceOnUse">
    <stop offset="0" stop-color="#BA9BC9"/>
    <stop offset="1" stop-color="#F4F3B4"/>
  </linearGradient>
  <path fill="url(#h)" d="M355 341c-8-1-13-7-11-13 1-7 9-11 17-10-1-4 3-7 8-8s10 1 11 5c0-1-1-7 3-12 5-5 11-7 13-7 1-4 4-7 9-7 5-1 10 2 11 7 8-2 16 0 21 4 4 4 5 10 2 15 3-4 9-6 15-6 6 1 11 5 12 10 0 0 6-3 12 0 4 2 7 6 6 10 2-3 6-3 9-2s4 4 3 7c-3 9-39 10-39 10l-46 1a390 390 0 0 1-56-4z" opacity=".8"/>
  <linearGradient id="i" x1="532.9" x2="532.9" y1="293.3" y2="369.4" gradientTransform="translate(-179)" gradientUnits="userSpaceOnUse">
    <stop offset="0" stop-color="#BA9BC9"/>
    <stop offset="1" stop-color="#F4F3B4"/>
  </linearGradient>
  <path fill="url(#i)" d="M258 364c-11-2-18-10-16-18s13-14 25-13c0-5 5-10 12-11s14 2 17 7c-1-2-2-9 4-17 7-7 17-9 19-9 1-5 7-9 13-10 8 0 15 4 17 10 11-3 24-1 31 6 5 5 7 13 3 20 5-6 13-9 22-8 9 2 16 7 17 14 0-1 10-4 18 0 7 2 10 8 9 13 4-3 9-4 13-3 4 2 6 6 5 9-5 13-57 14-57 14a705 705 0 0 1-151-4z" opacity=".8"/>
  <linearGradient id="j" x1="399.9" x2="399.9" y1="288" y2="488.4" gradientTransform="matrix(-1 0 0 1 617 0)" gradientUnits="userSpaceOnUse">
    <stop offset="0" stop-color="#00A79D"/>
    <stop offset="1" stop-color="#1B75BC"/>
  </linearGradient>
  <path fill="url(#j)" d="m613 380-10-13c0 1 1 12-5 20-6 7-13 6-14 6-2 0-15 1-24-12l-6-14-16 13a370 370 0 0 0-104-92c-5 13-19 42-45 63a91 91 0 0 1-60 20c-3-1-9-4-14-11l-5-10c-9 13-23 31-43 45-24 18-76 28-82 21-9-10-8-25-8-26l-25 30a251 251 0 0 0-95-66c-12 13-49 49-92 56-20 3-42 10-52-7-8-14-5-35-3-45a372 372 0 0 0-66 62c-6-2-22-13-22-13l-1 81 792-4"/>
  <linearGradient id="k" x1="396" x2="396" y1="327" y2="467" gradientTransform="translate(-179)" gradientUnits="userSpaceOnUse">
    <stop offset="0" stop-color="#00A9BD"/>
    <stop offset="1" stop-color="#006582"/>
  </linearGradient>
  <path fill="url(#k)" d="m-179 392 12-10c0 1-1 9 5 14s13 4 13 4c3 0 15 1 23-8 4-3 6-7 6-10l16 9A315 315 0 0 1-3 327a113 113 0 0 0 102 58 30 30 0 0 0 19-15c9 9 22 22 41 32 24 12 74 19 80 14 9-7 8-17 8-18l24 21a242 242 0 0 1 93-46c12 9 47 34 89 39 20 2 41 7 51-5 8-10 5-24 3-31a347 347 0 0 1 64 43c6-1 14-4 22-9l20-10v67l-792-3"/>
  <linearGradient id="l" x1="396" x2="396" y1="392.9" y2="555.4" gradientTransform="translate(-179)" gradientUnits="userSpaceOnUse">
    <stop offset="0" stop-color="#509AB9"/>
    <stop offset="1" stop-color="#004F68"/>
  </linearGradient>
  <path fill="url(#l)" d="M-178 418c19-9 43-17 71-22 81-13 136 14 225 36 43 10 101 16 216 27 123 12 279 21 279 21v38s-779 34-792 38l1-138z"/>
  <linearGradient id="m" x1="396.3" x2="396.3" y1="445.9" y2="578.6" gradientTransform="translate(-179)" gradientUnits="userSpaceOnUse">
    <stop offset="0" stop-color="#56A4C4"/>
    <stop offset="1" stop-color="#003151"/>
  </linearGradient>
  <path fill="url(#m)" d="M-178 453c70 21 191 53 334 24l37-9c131-31 420-20 420-20v95S76 648-177 500c-2-33 0-3-1-40v-6z"/>
  <linearGradient id="n" x1="396.5" x2="396.5" y1="500.7" y2="612" gradientTransform="translate(-179)" gradientUnits="userSpaceOnUse">
    <stop offset="0" stop-color="#3BA9DC"/>
    <stop offset="1" stop-color="#003455"/>
  </linearGradient>
  <path fill="url(#n)" d="M613 501a3309 3309 0 0 1-791 0v111h791z"/>
</svg>
