<?xml version="1.0" encoding="UTF-8" standalone="no"?>
<svg
   xmlns:dc="http://purl.org/dc/elements/1.1/"
   xmlns:cc="http://creativecommons.org/ns#"
   xmlns:rdf="http://www.w3.org/1999/02/22-rdf-syntax-ns#"
   xmlns:svg="http://www.w3.org/2000/svg"
   xmlns="http://www.w3.org/2000/svg"
   xmlns:sodipodi="http://sodipodi.sourceforge.net/DTD/sodipodi-0.dtd"
   xmlns:inkscape="http://www.inkscape.org/namespaces/inkscape"
   enable-background="new 0 0 792 612"
   version="1.1"
   viewBox="0 0 612 612"
   xml:space="preserve"
   id="svg192"
   sodipodi:docname="night12h.svg"
   width="612"
   height="612"
   inkscape:version="1.0.2 (e86c870879, 2021-01-15)"><metadata
   id="metadata198"><rdf:RDF><cc:Work
       rdf:about=""><dc:format>image/svg+xml</dc:format><dc:type
         rdf:resource="http://purl.org/dc/dcmitype/StillImage" /><dc:title /></cc:Work></rdf:RDF></metadata><defs
   id="defs196" /><sodipodi:namedview
   pagecolor="#ffffff"
   bordercolor="#666666"
   borderopacity="1"
   objecttolerance="10"
   gridtolerance="10"
   guidetolerance="10"
   inkscape:pageopacity="0"
   inkscape:pageshadow="2"
   inkscape:window-width="1920"
   inkscape:window-height="1016"
   id="namedview194"
   showgrid="false"
   inkscape:zoom="1.2776355"
   inkscape:cx="139.65817"
   inkscape:cy="306"
   inkscape:window-x="0"
   inkscape:window-y="27"
   inkscape:window-maximized="1"
   inkscape:current-layer="svg192"
   inkscape:document-rotation="0" />
<style
   type="text/css"
   id="style2">
	.st0{fill:url(#t);}
	.st1{opacity:0.59;}
	.st2{fill:#F1F2F2;}
	.st3{fill:url(#u);}
	.st4{opacity:0.68;fill:url(#v);}
	.st5{opacity:0.82;fill:url(#w);}
	.st6{opacity:0.92;fill:url(#x);}
	.st7{opacity:0.79;fill:url(#y);}
	.st8{opacity:0.79;fill:url(#z);}
	.st9{opacity:0.79;fill:url(#aa);}
	.st10{opacity:0.79;fill:url(#ab);}
	.st11{fill:url(#o);}
	.st12{fill:url(#p);}
	.st13{fill:url(#q);}
	.st14{fill:url(#r);}
	.st15{fill:url(#s);}
	.st16{fill:url(#SVGID_15_);}
	.st17{fill:url(#SVGID_16_);}
	.st18{opacity:0.68;fill:url(#SVGID_17_);}
	.st19{opacity:0.82;fill:url(#SVGID_18_);}
	.st20{opacity:0.92;fill:url(#SVGID_19_);}
	.st21{opacity:0.79;fill:url(#SVGID_20_);}
	.st22{opacity:0.79;fill:url(#SVGID_21_);}
	.st23{opacity:0.79;fill:url(#SVGID_22_);}
	.st24{opacity:0.79;fill:url(#SVGID_23_);}
	.st25{fill:url(#SVGID_24_);}
	.st26{fill:url(#SVGID_25_);}
	.st27{fill:url(#SVGID_26_);}
	.st28{fill:url(#SVGID_27_);}
	.st29{fill:url(#SVGID_28_);}
	.st30{fill:url(#SVGID_29_);}
	.st31{fill:url(#SVGID_30_);}
	.st32{opacity:0.68;fill:url(#SVGID_31_);}
	.st33{opacity:0.82;fill:url(#SVGID_32_);}
	.st34{opacity:0.92;fill:url(#SVGID_33_);}
	.st35{opacity:0.79;fill:url(#SVGID_34_);}
	.st36{opacity:0.79;fill:url(#SVGID_35_);}
	.st37{opacity:0.79;fill:url(#SVGID_36_);}
	.st38{opacity:0.79;fill:url(#SVGID_37_);}
	.st39{fill:url(#SVGID_38_);}
	.st40{fill:url(#SVGID_39_);}
	.st41{fill:url(#SVGID_40_);}
	.st42{fill:url(#SVGID_41_);}
	.st43{fill:url(#SVGID_42_);}
	.st44{fill:url(#SVGID_43_);}
	.st45{fill:url(#SVGID_44_);}
	.st46{opacity:0.68;fill:url(#SVGID_45_);}
	.st47{opacity:0.82;fill:url(#SVGID_46_);}
	.st48{opacity:0.92;fill:url(#SVGID_47_);}
	.st49{opacity:0.79;fill:url(#SVGID_48_);}
	.st50{opacity:0.79;fill:url(#SVGID_49_);}
	.st51{opacity:0.79;fill:url(#SVGID_50_);}
	.st52{opacity:0.79;fill:url(#SVGID_51_);}
	.st53{fill:url(#SVGID_52_);}
	.st54{fill:url(#SVGID_53_);}
	.st55{fill:url(#SVGID_54_);}
	.st56{fill:url(#SVGID_55_);}
	.st57{fill:url(#SVGID_56_);}
	.st58{fill:url(#SVGID_57_);}
	.st59{fill:url(#SVGID_58_);}
	.st60{opacity:0.68;fill:url(#SVGID_59_);}
	.st61{opacity:0.82;fill:url(#SVGID_60_);}
	.st62{opacity:0.92;fill:url(#SVGID_61_);}
	.st63{opacity:0.79;fill:url(#SVGID_62_);}
	.st64{opacity:0.79;fill:url(#SVGID_63_);}
	.st65{opacity:0.79;fill:url(#SVGID_64_);}
	.st66{opacity:0.79;fill:url(#SVGID_65_);}
	.st67{fill:url(#SVGID_66_);}
	.st68{fill:url(#SVGID_67_);}
	.st69{fill:url(#SVGID_68_);}
	.st70{fill:url(#SVGID_69_);}
	.st71{fill:url(#SVGID_70_);}
</style>
	<linearGradient
   id="t"
   x1="396"
   x2="396"
   y2="456"
   gradientUnits="userSpaceOnUse"
   gradientTransform="translate(-178.15913)">
		<stop
   stop-color="#1F000A"
   offset=".00623"
   id="stop4" />
		<stop
   stop-color="#300454"
   offset=".3144"
   id="stop6" />
		<stop
   stop-color="#0066AB"
   offset=".9927"
   id="stop8" />
	</linearGradient>
	<rect
   class="st0"
   width="792"
   height="456"
   id="rect11"
   x="-178.15913"
   y="0"
   style="fill:url(#t)" />
	<radialGradient
   id="u"
   cx="270.26001"
   cy="131.05"
   r="55.541"
   gradientUnits="userSpaceOnUse"
   gradientTransform="matrix(0.54494729,0.86126673,-0.87561324,0.53601859,279.73646,-231.47957)">
		<stop
   stop-color="#F1F7E6"
   offset="0"
   id="stop13" />
		<stop
   stop-color="#A3ACB1"
   offset=".9897"
   id="stop15" />
	</radialGradient>
	<path
   class="st3"
   d="m 317.98292,48.602687 c 7.40356,-6.921916 15.60735,-9.315275 22.27973,-11.249118 6.75996,-1.98744 12.44591,-2.600491 15.8026,-2.86305 C 336.72256,13.711631 305.3557,9.2549891 282.23951,23.405878 c -26.79377,16.402172 -35.09349,51.474043 -18.4181,77.828812 16.67538,26.35476 52.33146,34.51849 79.12523,18.11631 -6.82664,-3.10964 -20.30293,-10.39318 -28.98717,-25.270213 -3.694,-6.2222 -9.50167,-16.16892 -6.83306,-28.078369 2.09484,-9.168477 8.17333,-14.92078 10.85651,-17.399731 z"
   id="path18"
   style="fill:url(#u);stroke-width:1.02286" />
	<g
   class="st1"
   id="g58"
   transform="translate(-178.15913)">
				<path
   class="st2"
   d="m 328,37.9 c 2.4,0 2.4,-3.8 0,-3.8 -2.4,0.1 -2.4,3.8 0,3.8 z"
   id="path20" />
				<path
   class="st2"
   d="m 486,101.5 c 3.2,0 3.2,-5 0,-5 -3.2,0 -3.2,5 0,5 z"
   id="path22" />
				<path
   class="st2"
   d="m 198,68.3 c 1.6,0 1.6,-2.5 0,-2.5 -1.6,0 -1.6,2.5 0,2.5 z"
   id="path24" />
				<path
   class="st2"
   d="m 267,110.3 c 1.6,0 1.6,-2.5 0,-2.5 -1.6,0 -1.6,2.5 0,2.5 z"
   id="path26" />
				<path
   class="st2"
   d="m 426,282.3 c 1.6,0 1.6,-2.5 0,-2.5 -1.6,0 -1.6,2.5 0,2.5 z"
   id="path28" />
				<path
   class="st2"
   d="m 516,213.3 c 1.6,0 1.6,-2.5 0,-2.5 -1.6,0 -1.6,2.5 0,2.5 z"
   id="path30" />
				<path
   class="st2"
   d="m 634,298.3 c 1.6,0 1.6,-2.5 0,-2.5 -1.6,0 -1.6,2.5 0,2.5 z"
   id="path32" />
				<path
   class="st2"
   d="m 739,216.3 c 1.6,0 1.6,-2.5 0,-2.5 -1.6,0 -1.6,2.5 0,2.5 z"
   id="path34" />
				<path
   class="st2"
   d="m 688,147.3 c 1.6,0 1.6,-2.5 0,-2.5 -1.6,0 -1.6,2.5 0,2.5 z"
   id="path36" />
				<path
   class="st2"
   d="m 775,35.3 c 1.6,0 1.6,-2.5 0,-2.5 -1.6,0 -1.6,2.5 0,2.5 z"
   id="path38" />
				<path
   class="st2"
   d="m 64,298.3 c 1.6,0 1.6,-2.5 0,-2.5 -1.6,0 -1.6,2.5 0,2.5 z"
   id="path40" />
				<path
   class="st2"
   d="m 43,159.3 c 1.6,0 1.6,-2.5 0,-2.5 -1.6,0 -1.6,2.5 0,2.5 z"
   id="path42" />
				<path
   class="st2"
   d="m 132,82.3 c 1.6,0 1.6,-2.5 0,-2.5 -1.6,0 -1.6,2.5 0,2.5 z"
   id="path44" />
				<path
   class="st2"
   d="m 77,56.9 c 2.4,0 2.4,-3.8 0,-3.8 -2.4,0.1 -2.4,3.8 0,3.8 z"
   id="path46" />
				<path
   class="st2"
   d="m 103,119.9 c 2.4,0 2.4,-3.8 0,-3.8 -2.4,0.1 -2.4,3.8 0,3.8 z"
   id="path48" />
				<path
   class="st2"
   d="m 458,83.9 c 2.4,0 2.4,-3.8 0,-3.8 -2.4,0.1 -2.4,3.8 0,3.8 z"
   id="path50" />
				<path
   class="st2"
   d="m 346,185.9 c 2.4,0 2.4,-3.8 0,-3.8 -2.4,0.1 -2.4,3.8 0,3.8 z"
   id="path52" />
				<path
   class="st2"
   d="m 164,323.9 c 2.4,0 2.4,-3.8 0,-3.8 -2.4,0.1 -2.4,3.8 0,3.8 z"
   id="path54" />
				<path
   class="st2"
   d="m 259,235.9 c 2.4,0 2.4,-3.8 0,-3.8 -2.4,0.1 -2.4,3.8 0,3.8 z"
   id="path56" />
	</g>
	<linearGradient
   id="v"
   x1="217.2"
   x2="217.2"
   y1="110.9"
   y2="263.03"
   gradientUnits="userSpaceOnUse"
   gradientTransform="translate(-178.15913)">
		<stop
   stop-color="#4787A1"
   offset="0"
   id="stop60" />
		<stop
   stop-color="#2F1753"
   offset=".9949"
   id="stop62" />
	</linearGradient>
	<path
   class="st4"
   d="m -101.15913,253 c -16.7,-3.9 -27.4,-20.3 -24.2,-36.8 3.2,-16.9 20,-28.4 37.199997,-25.2 -1,-10.9 6.4,-20.8 17,-23 10.5,-2.2 21.1,3.8 24.6,14 -0.6,-3 -3.3,-18.2 6.4,-33 9.4,-14.5 23.9,-18.3 27,-19 1.9,-10.3 10.1999997,-18.1 19.9999997,-19 11.2000003,-1.1 22.1000003,7 24.4000003,19 16.3,-5.9 34.3,-0.9 44.6,12 8.7,11 10.5,26.1 5,39.5 6.7,-11 19.500003,-16.8 32.000003,-14.5 12.9,2.4 23.1,12.9 25,26 0.6,-0.3 14,-7.6 27,0 9.2,5.4 14.4,16.1 13,27 4.9,-6.7 13.2,-8.9 19,-6 5.9,3 8.4,12.3 6.6,18.8 -7.2,25.2 -83.6,28.2 -83.6,28.2 0,0 -48.400003,2.3 -99.000003,2 -47.8,-0.3 -71.7,-2.8 -82,-4 -16.5,-1.9 -30.3,-4.2 -39.999997,-6 z"
   id="path65"
   style="fill:url(#v)" />
	<linearGradient
   id="w"
   x1="663.58002"
   x2="663.58002"
   y1="29.903999"
   y2="105.97"
   gradientUnits="userSpaceOnUse"
   gradientTransform="translate(-143.5083,1.4671915)">
		<stop
   stop-color="#4787A1"
   offset="0"
   id="stop67" />
		<stop
   stop-color="#2F1753"
   offset=".9949"
   id="stop69" />
	</linearGradient>
	<path
   class="st5"
   d="m 428.6917,102.46719 c -10.9,-1.9 -17.8,-10.199998 -15.8,-18.399998 2.1,-8.5 13,-14.2 24.3,-12.6 -0.6,-5.4 4.2,-10.4 11.1,-11.5 6.8,-1.1 13.8,1.9 16.1,7 -0.4,-1.5 -2.1,-9.1 4.1,-16.5 6.1,-7.2 15.6,-9.1 17.6,-9.5 1.2,-5.2 6.7,-9 13,-9.5 7.3,-0.5 14.4,3.5 15.9,9.5 10.6,-2.9 22.4,-0.5 29.1,6 5.7,5.5 6.9,13.1 3.3,19.7 4.3,-5.5 12.7,-8.4 20.9,-7.2 8.4,1.2 15,6.4 16.3,13 0.4,-0.2 9.1,-3.8 17.6,0 6,2.7 9.4,8 8.5,13.5 3.2,-3.4 8.6,-4.5 12.4,-3 3.9,1.5 5.5,6.1 4.3,9.4 -4.7,12.599998 -54.5,14.099998 -54.5,14.099998 0,0 -31.6,1.2 -64.6,1 -31.2,-0.2 -46.8,-1.4 -53.5,-2 -10.8,-1 -19.8,-2.1 -26.1,-3 z"
   id="path72"
   style="fill:url(#w)" />
		<linearGradient
   id="x"
   x1="-2904.7"
   x2="-2904.7"
   y1="55.903999"
   y2="122"
   gradientTransform="matrix(-1.1403,0,0,1,-2934.4591,0)"
   gradientUnits="userSpaceOnUse">
		<stop
   stop-color="#4787A1"
   offset="0"
   id="stop74" />
		<stop
   stop-color="#2F1753"
   offset=".9949"
   id="stop76" />
	</linearGradient>
	<path
   class="st6"
   d="m 440.44087,117.6 c 7.4,-1.7 12.2,-8.8 10.8,-16 -1.4,-7.4 -8.9,-12.3 -16.6,-10.9 0.4,-4.7 -2.9,-9 -7.6,-10 -4.7,-0.9 -9.4,1.7 -11,6.1 0.3,-1.3 1.5,-7.9 -2.8,-14.3 -4.2,-6.3 -10.7,-7.9 -12,-8.3 -0.8,-4.5 -4.6,-7.8 -8.9,-8.3 -5,-0.5 -9.9,3.1 -10.9,8.3 -7.3,-2.6 -15.3,-0.4 -19.9,5.2 -3.9,4.8 -4.7,11.4 -2.2,17.2 -3,-4.8 -8.7,-7.3 -14.3,-6.3 -5.8,1 -10.3,5.6 -11.2,11.3 -0.3,-0.1 -6.2,-3.3 -12,0 -4.1,2.3 -6.4,7 -5.8,11.7 -2.2,-2.9 -5.9,-3.9 -8.5,-2.6 -2.6,1.3 -3.8,5.3 -2.9,8.2 3.2,10.9 37.3,12.2 37.3,12.2 0,0 21.6,1 44.2,0.9 21.3,-0.1 32,-1.2 36.6,-1.7 7.2,-0.9 13.3,-1.9 17.7,-2.7 z"
   id="path79"
   style="fill:url(#x)" />
	<linearGradient
   id="y"
   x1="248.47"
   x2="248.47"
   y1="327.57001"
   y2="383.60001"
   gradientUnits="userSpaceOnUse"
   gradientTransform="translate(-178.15913)">
		<stop
   stop-color="#4787A1"
   offset="0"
   id="stop81" />
		<stop
   stop-color="#2F1753"
   offset=".9949"
   id="stop83" />
	</linearGradient>
	<path
   class="st7"
   d="m 5.3408667,379.9 c -7.7,-1.4 -12.7,-7.5 -11.2,-13.6 1.5,-6.2 9.3,-10.5 17.3000003,-9.3 -0.5,-4 3,-7.7 7.9,-8.5 4.9,-0.8 9.8,1.4 11.4,5.2 -0.3,-1.1 -1.5,-6.7 2.9,-12.2 4.4,-5.3 11.1,-6.7 12.5,-7 0.9,-3.8 4.7,-6.7 9.3,-7 5.2,-0.4 10.2,2.6 11.3,7 7.6,-2.2 15.9,-0.3 20.7,4.4 4,4 4.9,9.6 2.3,14.5 3.1,-4.1 9,-6.2 14.800003,-5.3 6,0.9 10.7,4.7 11.6,9.6 0.3,-0.1 6.5,-2.8 12.5,0 4.3,2 6.7,5.9 6,9.9 2.3,-2.5 6.1,-3.3 8.8,-2.2 2.7,1.1 3.9,4.5 3,6.9 -3.3,9.3 -38.7,10.4 -38.7,10.4 0,0 -22.500003,0.9 -45.900003,0.7 -22.2,-0.1 -33.3,-1 -38,-1.5 -7.6,-0.5 -14.0000003,-1.3 -18.5000003,-2 z"
   id="path86"
   style="fill:url(#y)" />
	<linearGradient
   id="z"
   x1="77.000999"
   x2="77.000999"
   y1="299.92999"
   y2="355.95999"
   gradientUnits="userSpaceOnUse"
   gradientTransform="translate(-178.15913)">
		<stop
   stop-color="#4787A1"
   offset="0"
   id="stop88" />
		<stop
   stop-color="#2F1753"
   offset=".9949"
   id="stop90" />
	</linearGradient>
	<path
   class="st8"
   d="m -166.15913,352.3 c -7.7,-1.4 -12.7,-7.5 -11.2,-13.6 1.5,-6.2 9.3,-10.5 17.3,-9.3 -0.5,-4 3,-7.7 7.9,-8.5 4.9,-0.8 9.8,1.4 11.4,5.2 -0.3,-1.1 -1.5,-6.7 2.9,-12.2 4.4,-5.3 11.1,-6.7 12.5,-7 0.9,-3.8 4.7,-6.7 9.3,-7 5.2,-0.4 10.2,2.6 11.3,7 7.599997,-2.2 15.899997,-0.3 20.699997,4.4 4,4 4.9,9.6 2.3,14.5 3.1,-4.1 9,-6.2 14.8,-5.3 6,0.9 10.7,4.7 11.6,9.6 0.3,-0.1 6.5,-2.8 12.5,0 4.3,2 6.7,5.9 6,9.9 2.3,-2.5 6.1,-3.3 8.8,-2.2 2.7,1.1 3.9,4.5 3,6.9 -3.3,9.3 -38.7,10.4 -38.7,10.4 0,0 -22.5,0.9 -45.899997,0.7 -22.2,-0.1 -33.3,-1 -38,-1.5 -7.6,-0.5 -14,-1.4 -18.5,-2 z"
   id="path93"
   style="fill:url(#z)" />
	<linearGradient
   id="aa"
   x1="598.53003"
   x2="598.53003"
   y1="288.97"
   y2="345"
   gradientUnits="userSpaceOnUse"
   gradientTransform="translate(-178.15913)">
		<stop
   stop-color="#4787A1"
   offset="0"
   id="stop95" />
		<stop
   stop-color="#2F1753"
   offset=".9949"
   id="stop97" />
	</linearGradient>
	<path
   class="st9"
   d="m 355.34087,341.3 c -7.7,-1.4 -12.7,-7.5 -11.2,-13.6 1.5,-6.2 9.3,-10.5 17.3,-9.3 -0.5,-4 3,-7.7 7.9,-8.5 4.9,-0.8 9.8,1.4 11.4,5.2 -0.3,-1.1 -1.5,-6.7 2.9,-12.2 4.4,-5.3 11.1,-6.7 12.5,-7 0.9,-3.8 4.7,-6.7 9.3,-7 5.2,-0.4 10.2,2.6 11.3,7 7.6,-2.2 15.9,-0.3 20.7,4.4 4,4 4.9,9.6 2.3,14.5 3.1,-4.1 9,-6.2 14.8,-5.3 6,0.9 10.7,4.7 11.6,9.6 0.3,-0.1 6.5,-2.8 12.5,0 4.3,2 6.7,5.9 6,9.9 2.3,-2.5 6.1,-3.3 8.8,-2.2 2.7,1.1 3.9,4.5 3,6.9 -3.3,9.3 -38.7,10.4 -38.7,10.4 0,0 -22.5,0.9 -45.9,0.7 -22.2,-0.1 -33.3,-1 -38,-1.5 -7.6,-0.5 -13.9,-1.3 -18.5,-2 z"
   id="path100"
   style="fill:url(#aa)" />
	<linearGradient
   id="ab"
   x1="532.94"
   x2="532.94"
   y1="293.32001"
   y2="369.39001"
   gradientUnits="userSpaceOnUse"
   gradientTransform="translate(-178.15913)">
		<stop
   stop-color="#4787A1"
   offset="0"
   id="stop102" />
		<stop
   stop-color="#2F1753"
   offset=".9949"
   id="stop104" />
	</linearGradient>
	<path
   class="st10"
   d="m 258.84087,364.4 c -11.4,-1.9 -18.7,-10.2 -16.6,-18.4 2.2,-8.5 13.7,-14.2 25.5,-12.6 -0.7,-5.4 4.4,-10.4 11.6,-11.5 7.2,-1.1 14.4,1.9 16.9,7 -0.4,-1.5 -2.2,-9.1 4.4,-16.5 6.4,-7.2 16.4,-9.1 18.5,-9.5 1.3,-5.2 7,-9 13.7,-9.5 7.7,-0.5 15.1,3.5 16.7,9.5 11.2,-2.9 23.5,-0.5 30.5,6 5.9,5.5 7.2,13.1 3.4,19.8 4.6,-5.5 13.3,-8.4 21.9,-7.2 8.9,1.2 15.8,6.4 17.1,13 0.4,-0.2 9.6,-3.8 18.5,0 6.3,2.7 9.8,8 8.9,13.5 3.4,-3.4 9.1,-4.5 13,-3 4.1,1.5 5.8,6.1 4.5,9.4 -4.9,12.6 -57.1,14.1 -57.2,14.1 0,0 -33.1,1.2 -67.7,1 -32.7,-0.2 -49.1,-1.4 -56.1,-2 -11.4,-1.1 -20.8,-2.2 -27.5,-3.1 z"
   id="path107"
   style="fill:url(#ab)" />
		<linearGradient
   id="o"
   x1="-2980.2"
   x2="-2980.2"
   y1="288"
   y2="488.37"
   gradientTransform="matrix(-1,0,0,1,-2762.3591,0)"
   gradientUnits="userSpaceOnUse">
		<stop
   stop-color="#412267"
   offset=".0051082"
   id="stop109" />
		<stop
   stop-color="#160B45"
   offset="1"
   id="stop111" />
	</linearGradient>
	<path
   class="st11"
   d="m 613.84087,379.6 c -3.6,-4.3 -7.2,-8.5 -10.7,-12.8 0.1,1 1,12.2 -5.1,20.1 -5.5,7.1 -12.4,5.9 -13.4,5.7 -2.1,0.2 -14.7,1.3 -23.7,-11.5 -3.5,-5 -5.3,-10.5 -6.2,-14.3 l -16.5,12.9 c -14.4,-18.8 -33.5,-40.3 -57.6,-60.2 -16.6,-13.6 -32.3,-23.8 -46.3,-31.5 -5,12.7 -18.5,42.4 -45.2,63 -25.4,19.6 -49.2,20.5 -59.6,20.1 -3.1,-1.1 -9.1,-3.9 -14.4,-11.5 -2.5,-3.5 -4.1,-7.1 -5.1,-10 -8.4,12.9 -22.1,31 -42.2,45.8 -24,17.8 -75.9,27.1 -82.3,20.1 -8.6,-9.6 -8.3,-24.2 -8.2,-25.8 -8.2,10 -16.5,20.1 -24.7,30.1 -11.7,-13.1 -27.4,-28.2 -47.3,-41.5 C 87.340867,366.2 70.640867,358.7 57.040867,354 c -11.8,12.5 -48.1000003,48.7 -91.5,55.9 -19.7,3.3 -42.1,10.5 -52.4,-7.2 -8.1,-13.7 -5,-34.9 -3.1,-44.4 -15.899997,11.6 -32.999997,26.1 -50.399997,44.4 -5.4,5.7 -10.6,11.5 -15.4,17.2 -5.9,-1.8 -22,-12.7 -22,-12.7 l -0.4,81.2 c 0,0 525.6,-2.8 792,-4.2"
   id="path114"
   style="fill:url(#o)" />
	<linearGradient
   id="p"
   x1="396"
   x2="396"
   y1="327"
   y2="466.98999"
   gradientUnits="userSpaceOnUse"
   gradientTransform="translate(-178.15913)">
		<stop
   stop-color="#372871"
   offset="0"
   id="stop116" />
		<stop
   stop-color="#190020"
   offset="1"
   id="stop118" />
	</linearGradient>
	<path
   class="st12"
   d="m -178.15913,392.3 c 4,-3.4 8,-6.9 12.1,-10.3 -0.1,0.7 -1,8.5 5,14 5.4,4.9 12.1,4.1 13,4 2.1,0.2 14.3,0.9 23,-8 3.4,-3.5 5.1,-7.3 6,-10 5.3,3 10.7,6 16,9 13.999997,-13.2 32.599997,-28.2 55.999997,-42 16.1,-9.5 31.4,-16.6 44.9999997,-22 4.9,8.9 18.0000003,29.6 44.0000003,44 24.7,13.7 47.8,14.3 58,14 3.000003,-0.8 8.900003,-2.7 14.000003,-8 2.4,-2.5 4,-5 5,-7 8.1,9 21.5,21.6 41,32 23.3,12.4 73.8,19 80,14 8.3,-6.7 8,-16.9 8,-18 l 24,21 c 11.4,-9.1 26.7,-19.7 46,-29 17.5,-8.5 33.7,-13.7 47,-17 11.5,8.7 46.8,34 89,39 19.2,2.3 40.9,7.4 51,-5 7.8,-9.6 4.8,-24.3 3,-31 15.5,8.1 32.1,18.2 49,31 5.3,4 10.3,8 15,12 5.8,-1.3 13.5,-3.7 21.4,-8.9 8.4,-5.5 20.5,-10.2 20.6,-10.4 V 467 l -792.1,-3"
   id="path121"
   style="fill:url(#p)" />
	<linearGradient
   id="q"
   x1="396"
   x2="396"
   y1="392.85999"
   y2="555.38"
   gradientUnits="userSpaceOnUse"
   gradientTransform="translate(-178.15913)">
		<stop
   stop-color="#441854"
   offset="0"
   id="stop123" />
		<stop
   stop-color="#31083B"
   offset=".1641"
   id="stop125" />
		<stop
   stop-color="#220028"
   offset=".2881"
   id="stop127" />
		<stop
   stop-color="#1A0020"
   offset=".3518"
   id="stop129" />
		<stop
   stop-color="#1A0020"
   offset=".355"
   id="stop131" />
		<stop
   stop-color="#180424"
   offset=".449"
   id="stop133" />
		<stop
   stop-color="#161127"
   offset=".5449"
   id="stop135" />
		<stop
   stop-color="#15182A"
   offset=".6425"
   id="stop137" />
		<stop
   stop-color="#141B2B"
   offset=".7426"
   id="stop139" />
		<stop
   stop-color="#131C2B"
   offset=".8493"
   id="stop141" />
	</linearGradient>
	<path
   class="st13"
   d="m -177.65913,418 c 19.2,-8.6 43.3,-17 71.5,-21.6 80.499997,-13.2 135.499997,14 225,35.7 42.3,10.2 100.2,15.8 216,27 123,11.9 279,20.6 279,20.6 v 38.4 c 0,0 -779.3,34.2 -792,37.4 0.5,-137.5 0,-0.1 0.5,-137.5 z"
   id="path144"
   style="fill:url(#q)" />
	<linearGradient
   id="r"
   x1="396.26001"
   x2="396.26001"
   y1="445.88"
   y2="578.60999"
   gradientUnits="userSpaceOnUse"
   gradientTransform="translate(-178.15913)">
		<stop
   stop-color="#441854"
   offset="0"
   id="stop146" />
		<stop
   stop-color="#31083B"
   offset=".1641"
   id="stop148" />
		<stop
   stop-color="#220028"
   offset=".2881"
   id="stop150" />
		<stop
   stop-color="#1A0020"
   offset=".3518"
   id="stop152" />
		<stop
   stop-color="#1A0020"
   offset=".355"
   id="stop154" />
		<stop
   stop-color="#180424"
   offset=".449"
   id="stop156" />
		<stop
   stop-color="#161127"
   offset=".5449"
   id="stop158" />
		<stop
   stop-color="#15182A"
   offset=".6425"
   id="stop160" />
		<stop
   stop-color="#141B2B"
   offset=".7426"
   id="stop162" />
		<stop
   stop-color="#131C2B"
   offset=".8493"
   id="stop164" />
	</linearGradient>
	<path
   class="st14"
   d="m -177.65913,452.9 c 69.9,20.9 191.199997,53.6 334,24.1 15.1,-3.1 9.9,-2.6 37,-9 131.5,-31.1 420.5,-20.3 420.5,-20.3 0,0 0,96.5 0,95.8 0,-0.7 -537.300003,103.9 -790.3,-44.6 -1.6,-33.2 -0.2,-3.2 -1,-39.9 -0.1,-1.8 -0.1,-3.9 -0.2,-6.1 z"
   id="path167"
   style="fill:url(#r)" />
	<linearGradient
   id="s"
   x1="396.5"
   x2="396.5"
   y1="500.70001"
   y2="612.04999"
   gradientUnits="userSpaceOnUse"
   gradientTransform="translate(-178.15913)">
		<stop
   stop-color="#441854"
   offset="0"
   id="stop169" />
		<stop
   stop-color="#31083B"
   offset=".1641"
   id="stop171" />
		<stop
   stop-color="#220028"
   offset=".2881"
   id="stop173" />
		<stop
   stop-color="#1A0020"
   offset=".3518"
   id="stop175" />
		<stop
   stop-color="#1A0020"
   offset=".355"
   id="stop177" />
		<stop
   stop-color="#180424"
   offset=".449"
   id="stop179" />
		<stop
   stop-color="#161127"
   offset=".5449"
   id="stop181" />
		<stop
   stop-color="#15182A"
   offset=".6425"
   id="stop183" />
		<stop
   stop-color="#141B2B"
   offset=".7426"
   id="stop185" />
		<stop
   stop-color="#131C2B"
   offset=".8493"
   id="stop187" />
	</linearGradient>
	<path
   class="st15"
   d="m 613.84087,500.7 c -116.6,14 -248.1,23.5 -392.2,23.6 -146.700003,0.1 -280.500003,-9.4 -398.8,-23.6 v 111.4 h 791 z"
   id="path190"
   style="fill:url(#s)" />
<path
   sodipodi:type="star"
   style="opacity:1;fill:#ecff00;fill-opacity:1;stroke:#fffb00;stroke-width:4.49864;stroke-opacity:1"
   id="path933"
   sodipodi:sides="5"
   sodipodi:cx="347.09399"
   sodipodi:cy="160.70729"
   sodipodi:r1="3.9136329"
   sodipodi:r2="1.9568166"
   sodipodi:arg1="0.90830162"
   sodipodi:arg2="1.5366201"
   inkscape:flatsided="false"
   inkscape:rounded="0"
   inkscape:randomized="0"
   d="m 349.50121,163.79303 -2.34035,-1.13007 -2.25771,1.28728 0.35155,-2.57502 -1.92194,-1.74942 2.55762,-0.46138 1.06989,-2.36848 1.22915,2.28988 2.58316,0.28562 -1.79797,1.8766 z"
   inkscape:transform-center-x="0.041307751"
   inkscape:transform-center-y="-0.33419734" /><path
   sodipodi:type="star"
   style="opacity:1;fill:#ecff00;fill-opacity:1;stroke:#fffb00;stroke-width:3.05253;stroke-opacity:1"
   id="path935"
   sodipodi:sides="5"
   sodipodi:cx="506.87056"
   sodipodi:cy="148.24001"
   sodipodi:r1="3.1155033"
   sodipodi:r2="1.5577517"
   sodipodi:arg1="0.95014084"
   sodipodi:arg2="1.5784594"
   inkscape:flatsided="false"
   inkscape:rounded="0"
   inkscape:randomized="0"
   d="m 508.68245,150.77446 -1.82381,-0.97675 -1.83857,0.94868 0.36535,-2.03638 -1.4704,-1.45543 2.04962,-0.2818 0.92981,-1.84819 0.90138,1.86222 2.04506,0.31319 -1.49254,1.43272 z"
   inkscape:transform-center-x="-0.0073770001"
   inkscape:transform-center-y="-0.29048988" /><path
   sodipodi:type="star"
   style="opacity:1;fill:#ecff00;fill-opacity:1;stroke:#fffb00;stroke-width:3.48923;stroke-opacity:1"
   id="path937"
   sodipodi:sides="5"
   sodipodi:cx="148.4739"
   sodipodi:cy="40.430888"
   sodipodi:r1="5.752912"
   sodipodi:r2="2.876456"
   sodipodi:arg1="0.80938084"
   sodipodi:arg2="1.4376994"
   inkscape:flatsided="false"
   inkscape:rounded="0"
   inkscape:randomized="0"
   d="m 152.44311,44.595193 -3.58748,-1.313288 -3.11566,2.210761 0.14042,-3.817729 -3.06535,-2.280001 3.67427,-1.046199 1.22116,-3.619879 2.13041,3.171143 3.82007,0.04279 -2.35761,3.006073 z"
   inkscape:transform-center-x="0.23591106"
   inkscape:transform-center-y="-0.3201272" /><path
   sodipodi:type="star"
   style="opacity:1;fill:#ecff00;fill-opacity:1;stroke:#fffb00;stroke-width:8.139;stroke-opacity:1"
   id="path939"
   sodipodi:sides="5"
   sodipodi:cx="241.20274"
   sodipodi:cy="276.56277"
   sodipodi:r1="1.1370242"
   sodipodi:r2="0.56851208"
   sodipodi:arg1="1.8884946"
   sodipodi:arg2="2.5168131"
   inkscape:flatsided="false"
   inkscape:rounded="0"
   inkscape:randomized="0"
   d="m 240.84756,277.6429 -0.10593,-0.74759 -0.6759,-0.33656 0.67826,-0.33176 0.11122,-0.74683 0.52513,0.54255 0.74463,-0.125 -0.35372,0.66708 0.34899,0.66956 -0.74373,-0.13027 z"
   inkscape:transform-center-x="0.10739288"
   inkscape:transform-center-y="-0.0012434467" /><path
   sodipodi:type="star"
   style="opacity:1;fill:#ecff00;fill-opacity:1;stroke:#fffb00;stroke-width:8.139;stroke-opacity:1"
   id="path941"
   sodipodi:sides="5"
   sodipodi:cx="337.84088"
   sodipodi:cy="213.3"
   sodipodi:r1="8.6140556"
   sodipodi:r2="4.3070278"
   sodipodi:arg1="1.4931585"
   sodipodi:arg2="2.121477"
   inkscape:flatsided="false"
   inkscape:rounded="0"
   inkscape:randomized="0"
   d="m 338.50899,221.88811 -2.92184,-4.91779 -5.70759,-0.38104 3.77421,-4.29851 -1.40136,-5.54599 5.25442,2.26117 4.84151,-3.04657 -0.5268,5.69598 4.39357,3.66311 -5.57999,1.25914 z"
   inkscape:transform-center-x="-0.20645585"
   inkscape:transform-center-y="0.6237401" /><path
   sodipodi:type="star"
   style="opacity:1;fill:#ecff00;fill-opacity:1;stroke:#fffb00;stroke-width:6.38376;stroke-opacity:1"
   id="path943"
   sodipodi:sides="5"
   sodipodi:cx="163.87469"
   sodipodi:cy="189.87383"
   sodipodi:r1="8.9928617"
   sodipodi:r2="4.4964309"
   sodipodi:arg1="1.1014492"
   sodipodi:arg2="1.7297677"
   inkscape:flatsided="false"
   inkscape:rounded="0"
   inkscape:randomized="0"
   d="m 167.9422,197.89423 -4.7793,-3.58067 -5.65914,1.90714 1.92854,-5.65188 -3.56257,-4.79282 5.97121,0.0876 3.45735,-4.86926 1.76187,5.70603 5.69932,1.78345 -4.8823,3.4389 z"
   inkscape:transform-center-x="-0.43991268"
   inkscape:transform-center-y="-0.42952166" /><path
   sodipodi:type="star"
   style="opacity:1;fill:#ecff00;fill-opacity:1;stroke:#fffb00;stroke-width:4.6419;stroke-opacity:1"
   id="path945"
   sodipodi:sides="5"
   sodipodi:cx="81.759433"
   sodipodi:cy="109.35908"
   sodipodi:r1="14.287349"
   sodipodi:r2="7.1436744"
   sodipodi:arg1="0.76041605"
   sodipodi:arg2="1.3887346"
   inkscape:flatsided="false"
   inkscape:rounded="0"
   inkscape:randomized="0"
   d="m 92.111319,119.20625 -9.058472,-2.82157 -7.459721,5.86257 -0.115758,-9.48703 -7.880813,-5.28298 8.986931,-3.04175 2.58911,-9.127627 5.669986,7.607127 9.480971,-0.3582 -5.482686,7.74321 z"
   inkscape:transform-center-x="0.7993743"
   inkscape:transform-center-y="-0.58152381" /><path
   sodipodi:type="star"
   style="opacity:1;fill:#ecff00;fill-opacity:1;stroke:#fffb00;stroke-width:4.53226;stroke-opacity:1"
   id="path947"
   sodipodi:sides="5"
   sodipodi:cx="18.193237"
   sodipodi:cy="69.767158"
   sodipodi:r1="4.4123669"
   sodipodi:r2="2.2061834"
   sodipodi:arg1="1.1574341"
   sodipodi:arg2="1.7857526"
   inkscape:flatsided="false"
   inkscape:rounded="0"
   inkscape:randomized="0"
   d="m 19.965644,73.807896 -2.242996,-1.885328 -2.824676,0.778906 1.099929,-2.715814 -1.613656,-2.445732 2.922789,0.206862 1.827382,-2.290451 0.706454,2.843662 2.74304,1.030155 -2.486176,1.550618 z"
   inkscape:transform-center-x="-0.29083967"
   inkscape:transform-center-y="-0.13504295" /><path
   sodipodi:type="star"
   style="opacity:1;fill:#ecff00;fill-opacity:1;stroke:#fffb00;stroke-width:2.92816;stroke-opacity:1"
   id="path949"
   sodipodi:sides="5"
   sodipodi:cx="560.72712"
   sodipodi:cy="218.02389"
   sodipodi:r1="3.4552679"
   sodipodi:r2="1.727634"
   sodipodi:arg1="1.6366847"
   sodipodi:arg2="2.2650032"
   inkscape:flatsided="false"
   inkscape:rounded="0"
   inkscape:randomized="0"
   d="m 560.49961,221.47167 -0.8778,-2.11998 -2.24402,-0.47874 1.74496,-1.48995 -0.23814,-2.28213 1.95625,1.19914 2.09685,-0.9317 -0.53594,2.23106 1.53407,1.70631 -2.28748,0.17973 z"
   inkscape:transform-center-x="0.070311853"
   inkscape:transform-center-y="0.26237405" /><path
   sodipodi:type="star"
   style="opacity:1;fill:#ecff00;fill-opacity:1;stroke:#fffb00;stroke-width:8.139;stroke-opacity:1"
   id="path951"
   sodipodi:sides="5"
   sodipodi:cx="589.57806"
   sodipodi:cy="30.173225"
   sodipodi:r1="8.890007"
   sodipodi:r2="4.4450035"
   sodipodi:arg1="0.61467081"
   sodipodi:arg2="1.2429893"
   inkscape:flatsided="false"
   inkscape:rounded="0"
   inkscape:randomized="0"
   d="m 596.84087,35.3 -5.83166,-0.918464 -4.06267,4.283292 -0.92857,-5.830061 -5.32909,-2.540217 5.25778,-2.684712 0.76911,-5.853233 4.17805,4.170819 5.80443,-1.077281 -2.6756,5.26242 z"
   inkscape:transform-center-x="0.81318463"
   inkscape:transform-center-y="0.037491357" /><path
   sodipodi:type="star"
   style="opacity:1;fill:#ecff00;fill-opacity:1;stroke:#fffb00;stroke-width:6.09056;stroke-opacity:1"
   id="path953"
   sodipodi:sides="5"
   sodipodi:cx="-17.884502"
   sodipodi:cy="323.09643"
   sodipodi:r1="3.8110528"
   sodipodi:r2="1.9055264"
   sodipodi:arg1="1.4690845"
   sodipodi:arg2="2.0974031"
   inkscape:flatsided="false"
   inkscape:rounded="0"
   inkscape:randomized="0"
   d="m -17.497541,326.88779 -1.344684,-2.14399 -2.528494,-0.10775 1.623531,-1.9414 -0.678876,-2.43804 2.348081,0.94415 2.108926,-1.39905 -0.172337,2.52492 1.982264,1.57338 -2.454592,0.61634 z"
   inkscape:transform-center-x="-0.11957695"
   inkscape:transform-center-y="0.24830923" /><path
   sodipodi:type="star"
   style="opacity:1;fill:#ecff00;fill-opacity:1;stroke:#fffb00;stroke-width:4.67416;stroke-opacity:1"
   id="path963"
   sodipodi:sides="5"
   sodipodi:cx="261.39792"
   sodipodi:cy="175.23123"
   sodipodi:r1="7.6836796"
   sodipodi:r2="3.8418398"
   sodipodi:arg1="1.0997387"
   sodipodi:arg2="1.7280572"
   inkscape:flatsided="false"
   inkscape:rounded="0"
   inkscape:randomized="0"
   d="m 264.885,182.07807 -4.08877,-3.05241 -4.83248,1.63777 1.63952,-4.83189 -3.05093,-4.08987 5.10204,0.0661 2.94691,-4.16544 1.51371,4.87276 4.87222,1.51549 -4.16651,2.94539 z"
   inkscape:transform-center-x="-0.37185069"
   inkscape:transform-center-y="-0.37101068" /></svg>
