<svg xmlns="http://www.w3.org/2000/svg" xmlns:xlink="http://www.w3.org/1999/xlink" viewBox="0 0 793.7 1122.5">
  <defs>
    <radialGradient xlink:href="#a" id="b" cx="-100.53" cy="207.97" r="36.937" gradientTransform="matrix(.97333 0 0 .9018 395.38 67.049)" gradientUnits="userSpaceOnUse"/>
    <radialGradient xlink:href="#a" id="c" cx="-100.53" cy="207.97" r="36.937" gradientTransform="matrix(.97333 0 0 .9018 499.22 77.566)" gradientUnits="userSpaceOnUse"/>
    <linearGradient id="a">
      <stop offset="0" stop-color="#fbb300"/>
      <stop offset="1" stop-color="#fbb300" stop-opacity="0"/>
    </linearGradient>
  </defs>
  <g stroke="#000">
    <g fill-rule="evenodd">
      <path fill="#ff007f" stroke-width="3.594" d="M307.59 385.75s3.994 70.921-27.956 141.84c-31.95 70.921-88.454 130.2-84.461 130.2-3.994 0 70.354 13.895 209.17 20.342 183.71-9.671 166.24-36.46 166.24-36.46-18.415-29.729-143.18-159.21-147.18-265.6"/>
      <path fill="#3f007f" stroke-width="3.54" d="M303.53 370.19s19.044 54.478-13.892 139.03c-66.399 98.04-73.897 118.66-69.903 118.66-3.994 0 45.791 14.799 184.61 21.055 183.71-9.384 141.68-36.694 141.68-36.694-81.69-99.726-102.38-145.13-126.68-251.62"/>
      <path fill="#ff007f" stroke-width="3.804" d="M330.03 326.55s-59.722 56.672-20.695 49.935c39.026-6.737 37.252-6.737 56.766 10.105 19.513 16.842 12.418-32.841 37.252-20.21 24.835 12.631 18.913-46.754 5.806-51.905"/>
      <path fill="#ffc886" stroke-width="3.748" d="M327.15 325.67c-3.613 5.641 38.664 62.486 66.316-.823"/>
    </g>
    <g fill="#ff007f" stroke-width="4">
      <path d="M115.82 395.38a17.972 17.972 0 1 1-35.944 0 17.972 17.972 0 1 1 35.944 0z" transform="matrix(1 0 0 .87775 279.56 142.43)"/>
      <path d="M143.78 411.36a17.972 17.972 0 1 1-35.944 0 17.972 17.972 0 1 1 35.944 0z" transform="matrix(1 0 0 .87775 279.56 142.43)"/>
      <path d="M139.78 439.32a17.972 17.972 0 1 1-35.944 0 17.972 17.972 0 1 1 35.944 0z" transform="matrix(1 0 0 .87775 279.56 142.43)"/>
      <path d="M107.83 451.3a17.972 17.972 0 1 1-35.944 0 17.972 17.972 0 1 1 35.944 0z" transform="matrix(1 0 0 .87775 279.56 142.43)"/>
      <path d="M87.863 419.35a17.972 17.972 0 1 1-35.944 0 17.972 17.972 0 1 1 35.944 0z" transform="matrix(1 0 0 .87775 279.56 142.43)"/>
      <path d="M115.82 419.35a17.972 17.972 0 1 1-35.944 0 17.972 17.972 0 1 1 35.944 0z" transform="matrix(1 0 0 .87775 279.56 142.43)"/>
    </g>
    <g fill-rule="evenodd">
      <g fill="none" stroke-width="3.748">
        <path d="M108.35 398.15c100.51 38.057 191.37-23.234 191.37-23.234M423.69 366.33c100.51 38.057 51.589 148.54 51.589 148.54M307.65 856.36c3.994-92.897 15.975-182.29 15.975-182.29M371.5 845.84c3.994-78.875 23.963-168.27 23.963-168.27M107.83 394.82s-14.475-17.955-17.856-9.367c.423 5.25 13.023 12.095-5.402 27.786 5.665 9.755 23.257-18.419 23.257-18.419z"/>
      </g>
      <g fill="#3f007f" stroke-width="4.773">
        <path d="M305.5 857.74c2.043-2.562 10.366-7.591-6.167-10.318-36.353-6.292-45.368-4.304-50.773 7.061 6.978 11.38 50.812 6.587 56.94 3.257zM425.94 840.97c1.218-2.938 7.775-9.688-9-8.566-36.97 2.182-45.09 6.15-46.96 18.355 10.095 9.407 51.022-5.18 55.96-9.79z"/>
      </g>
    </g>
  </g>
  <g fill="#180030">
    <path d="M105.11 207.93c6.3.96 13.016 2.57 19.919 3.487 21.281 2.077 34.263-5.55-1.594 7.932 7.416-2.912 6.675-5.393 7.174-8.444 1.081-2.975 3.133-5.913 5.429-8.924 26.958-11.695 26.619-11.39 48.824-8.739 25.163-1.306 30.169-5.624.316 4.967.37-3.447-1.958-6.566-1.744-9.952 26.77-13.041 24.936-9.178 50.315-12.718 16.572-2.093 49.517-12.78-3.183 3.15 1.32-3.33 1.962-6.342.9-9.473-6.259-6.247 18.89-15.682 37.904-15.338 7.21 1.524 12.441 1.25 21.854-.268-28.865 12.228-19.274 8.354-23.046.3-2.536-6.834 26.542-16.16 42.313-13.785 6.605.5 12.97.98 19.994.919 20.087-6.906-24.697 14.048-9.805 2.557.667-3.18-1.615-5.462-6.07-7.582l25.708-9.411c4.658 2.236 7.167 4.654 6.992 7.93-3.287 6.423-21.892 14.11-40.321 16.57-7.57-.07-14.782-.635-21.632-1.357-24.79.776 16.794-11.795 8.947-5.042 4.102 8.711 5.688 9.143-25.817 19.144-9.69 1.215-15.972 1.337-23.39-.088-22.937 1.68 19.965-13.81 12.527-3.743 1.221 3.126 1.722 6.152-.638 9.54-1.39 7.983-26.607 13.5-46.248 16.124-23.357 2.922-31.4 3.642.182-6.176-1.202 3.154-.003 6.487 1.154 9.723-16.996 7.29-27.697 14.497-51.567 13.772-20.02-2.478-30.08 1.987 3.28-9.651-3 2.797-6.18 5.716-6.077 8.648-1.465 3.032.287 5.83-6.245 8.849-24.126 9.12-27.766 12.94-50.96 10.304-7.518-1.145-15.106-2.58-21.927-3.89l26.533-9.336zM600.34 204.42c-6.3.96-13.016 2.57-19.919 3.487-21.281 2.077-34.263-5.55 1.594 7.932-7.416-2.912-6.675-5.393-7.174-8.444-1.081-2.975-3.133-5.913-5.429-8.924-26.959-11.695-26.619-11.39-48.824-8.739-25.164-1.306-30.169-5.624-.316 4.967-.37-3.446 1.958-6.566 1.744-9.952-26.77-13.04-24.936-9.178-50.315-12.717-16.572-2.093-49.517-12.78 3.183 3.15-1.32-3.33-1.962-6.341-.9-9.473 6.259-6.247-18.89-15.682-37.904-15.338-7.21 1.524-12.441 1.25-21.854-.268 28.865 12.228 19.274 8.354 23.046.3 2.536-6.834-26.542-16.16-42.313-13.785-6.605.5-12.97.98-19.994.919-20.087-6.906 24.697 14.048 9.805 2.557-.667-3.18 1.615-5.462 6.07-7.582l-25.709-9.41c-4.657 2.235-7.166 4.653-6.991 7.929 3.287 6.423 21.892 14.11 40.32 16.57 7.572-.07 14.783-.635 21.633-1.357 24.79.776-16.794-11.795-8.947-5.042-4.102 8.711-5.688 9.144 25.817 19.144 9.69 1.215 15.972 1.337 23.39-.088 22.936 1.68-19.965-13.81-12.527-3.743-1.221 3.126-1.722 6.153.638 9.54 1.39 7.983 26.607 13.5 46.248 16.124 23.357 2.922 31.4 3.642-.182-6.176 1.202 3.154.003 6.488-1.154 9.723 16.996 7.29 27.697 14.497 51.567 13.772 20.02-2.478 30.08 1.987-3.28-9.651 3 2.797 6.18 5.716 6.077 8.648 1.465 3.032-.288 5.83 6.245 8.85 24.126 9.12 27.766 12.94 50.96 10.303 7.518-1.144 15.106-2.58 21.927-3.89l-26.533-9.336z"/>
  </g>
  <g stroke="#000">
    <g fill-rule="evenodd">
      <path fill="#ff007f" stroke-width="3.757" d="m362.95 127.47-47.19-31.81-12.418 27.569 62.093 10.603 62.093-23.327-27.321-19.086-37.256 36.051z"/>
      <path fill="#ffc886" stroke-width="3.748" d="M473.26 217.78c0 55.149-64.699 110.42-119.81 110.42-55.114 0-111.83-30.737-111.83-85.886s56.712-113.93 111.83-113.93c55.114 0 119.81 34.242 119.81 89.391z"/>
    </g>
    <g stroke-width="4">
      <path d="M345.66 235.03a5.661 4.915 0 1 1-11.323 0 5.661 4.915 0 1 1 11.323 0zM379.55 235.03a5.661 4.915 0 1 1-11.323 0 5.661 4.915 0 1 1 11.323 0z"/>
    </g>
    <path fill="none" stroke-width="3.783" d="M311.28 256.6c28.381 73.31 74.542 60.279 92.29 8.037"/>
  </g>
  <g fill="#180030">
    <path d="M557.91 255.82c-5.503-.504-11.519-.475-17.515-1.157-18.292-2.828-27.185-13.145-.69 8.024-5.449-4.497-4.198-6.725-3.837-9.786-.145-3.12-1.11-6.423-2.258-9.854-19.522-17.42-19.317-17.05-38.526-19.532-20.67-6.978-23.749-12.286-1.53 4.726.57-3.413 3.308-5.897 3.992-9.217-19.022-18.678-18.475-14.53-38.757-23.715-13.3-5.786-38.076-23.594 1.855 3.766-.253-3.516-.022-6.57 1.662-9.355 6.816-4.612-11.771-19.439-27.73-23.426-6.407-.165-10.703-1.619-18.173-5.224 20.978 18.37 13.96 12.449 19.16 5.526 3.858-6.025-18.038-21.639-31.806-22.928-5.64-1.017-11.075-2-16.924-3.654-15.007-11.234 17.035 19.18 7.533 4.697.253-3.222 2.74-4.909 6.999-5.945l-19.061-14.93c-4.457 1.1-7.168 2.867-7.856 6.07 1.107 6.952 14.678 18.603 29.434 25.168 6.337 1.65 12.5 2.744 18.402 3.602 20.495 6.382-11.013-15.208-6.184-6.902-5.643 7.482-7.078 7.54 16.67 24.357 7.78 3.375 12.992 4.92 19.548 5.228 18.716 6.834-13.147-17.875-9.504-6.461-1.816 2.742-3.005 5.552-1.898 9.36-.874 8.027 18.77 19.084 34.495 26.08 18.751 8.13 25.281 10.652 1.422-6.006.2 3.32-1.65 6.267-3.44 9.13 12.328 10.902 19.423 20.295 39.533 25.018 17.342 2.154 24.602 8.752-.278-10.067 1.791 3.383 3.702 6.925 2.868 9.734.45 3.26-1.725 5.565 2.958 9.966 17.814 14.29 19.879 18.808 39.91 21.53 6.567.602 13.266.939 19.293 1.224l-19.768-15.046zM163.13 303.39c6.002-1.933 12.736-3.487 19.237-5.722 19.613-7.541 26.511-19.844 3.138 7.569 4.763-5.777 2.709-7.6 1.403-10.461-.758-3.052-.655-6.497-.382-10.112 16.685-21.96 16.565-21.547 37.305-28.995 21.048-12.175 22.923-18.111 3.103 4.162-1.643-3.147-5.436-4.827-7.18-7.853 15.756-23.043 16.367-18.892 36.33-33.096 13.16-9.086 35.604-32.8-.962 4.124-.754-3.462-1.913-6.352-4.616-8.598-8.979-2.663 7.426-21.871 24.089-29.918 7.113-1.845 11.486-4.378 18.773-9.824-18.032 23.258-11.933 15.694-19.788 10.374-6.09-4.805 13.781-25.644 28.791-30.508 6.005-2.465 11.79-4.843 17.839-7.979 13.462-14.796-13.386 23.005-7.035 6.518-1.234-3.046-4.51-4.021-9.576-3.902l16.904-19.433c5.306-.108 8.857.885 10.572 3.799.812 7.005-10.922 21.827-25.48 32.047-6.597 3.26-13.164 5.937-19.508 8.318-21.027 11.552 7.825-17.585 4.877-8.293 8.514 5.743 10.134 5.422-11.453 27.91-7.702 5.305-13.07 8.167-20.307 10.189-18.905 11.522 9.424-20.722 8.718-8.74 2.838 2.172 4.995 4.573 4.88 8.542 3.345 7.524-15.351 23.368-30.866 34.261-18.563 12.781-25.118 16.934-3.36-5.428.755 3.258 3.692 5.62 6.537 7.914-10.567 13.772-15.728 24.71-36.813 34.558-18.749 6.64-24.918 14.922-2.657-9.798-1.005 3.74-2.096 7.663-.336 10.156.458 3.269 3.57 4.922-.368 10.404-15.698 18.487-16.674 23.393-38.263 31.288-7.162 2.308-14.552 4.395-21.205 6.255l17.66-19.73z"/>
    <path d="M130.68 255.82c6.368-.504 13.33-.475 20.269-1.157 21.168-2.828 31.459-13.145.799 8.024 6.305-4.497 4.858-6.725 4.44-9.786.167-3.12 1.283-6.423 2.612-9.854 22.592-17.42 22.354-17.05 44.583-19.532 23.921-6.978 27.482-12.286 1.77 4.726-.659-3.413-3.827-5.897-4.619-9.217 22.012-18.678 21.38-14.53 44.85-23.715 15.39-5.786 44.062-23.594-2.146 3.766.293-3.516.025-6.57-1.923-9.355-7.888-4.612 13.622-19.439 32.09-23.426 7.414-.165 12.386-1.619 21.03-5.224-24.276 18.37-16.154 12.449-22.173 5.526-4.465-6.025 20.873-21.639 36.806-22.928 6.527-1.017 12.816-2 19.584-3.654 17.366-11.234-19.713 19.18-8.717 4.697-.294-3.222-3.17-4.909-8.1-5.945l22.058-14.93c5.158 1.1 8.294 2.867 9.092 6.07-1.282 6.952-16.986 18.603-34.061 25.168-7.334 1.65-14.466 2.744-21.296 3.602-23.717 6.382 12.744-15.208 7.155-6.902 6.53 7.482 8.19 7.54-19.292 24.357-9.003 3.375-15.033 4.92-22.62 5.228-21.658 6.834 15.214-17.875 10.998-6.461 2.101 2.742 3.477 5.552 2.196 9.36 1.012 8.027-21.72 19.084-39.918 26.08-21.699 8.13-29.255 10.652-1.645-6.006-.23 3.32 1.91 6.267 3.982 9.13-14.267 10.902-22.478 20.295-45.75 25.018-20.067 2.154-28.468 8.752.323-10.067-2.073 3.383-4.284 6.925-3.319 9.734-.521 3.26 1.996 5.565-3.423 9.966-20.615 14.29-23.004 18.808-46.185 21.53-7.6.602-15.352.939-22.327 1.224l22.876-15.046zM429.15 221.54c-2.387-1.022-5.064-1.844-7.65-3.026-7.798-3.986-10.541-10.492-1.247 4.002-1.894-3.054-1.077-4.018-.558-5.53.302-1.613.26-3.435.152-5.346-6.634-11.61-6.586-11.392-14.833-15.33-8.37-6.437-9.115-9.576-1.234 2.2.654-1.663 2.162-2.552 2.855-4.152-6.264-12.183-6.508-9.988-14.446-17.498-5.233-4.803-14.157-17.342.383 2.181.3-1.83.76-3.358 1.835-4.546 3.57-1.408-2.952-11.564-9.578-15.818-2.828-.975-4.567-2.315-7.465-5.194 7.17 12.297 4.745 8.298 7.869 5.485 2.42-2.54-5.48-13.558-11.448-16.13-2.388-1.303-4.689-2.56-7.094-4.218-5.353-7.823 5.323 12.163 2.797 3.446.491-1.61 1.794-2.126 3.808-2.063l-6.721-10.274c-2.11-.057-3.522.468-4.204 2.008-.323 3.704 4.343 11.54 10.131 16.943 2.624 1.724 5.235 3.139 7.757 4.398 8.361 6.108-3.111-9.298-1.939-4.385-3.385 3.037-4.03 2.867 4.554 14.756 3.062 2.805 5.197 4.318 8.075 5.387 7.517 6.092-3.748-10.956-3.467-4.62-1.128 1.148-1.986 2.417-1.94 4.516-1.33 3.977 6.104 12.355 12.273 18.114 7.381 6.757 9.988 8.953 1.336-2.87-.3 1.723-1.468 2.97-2.6 4.184 4.202 7.281 6.255 13.064 14.639 18.271 7.455 3.51 9.908 7.89 1.056-5.18.4 1.977.834 4.051.134 5.37-.182 1.728-1.42 2.602.146 5.5 6.242 9.774 6.63 12.369 15.214 16.543 2.848 1.22 5.787 2.323 8.432 3.306l-7.022-10.43z"/>
  </g>
  <g stroke-width="4.01">
    <path fill="url(#b)" d="M331.48 254.6a33.947 31.55 0 1 1-67.894 0 33.947 31.55 0 1 1 67.894 0z"/>
    <path fill="url(#c)" d="M435.32 265.11a33.947 31.55 0 1 1-67.894 0 33.947 31.55 0 1 1 67.894 0z"/>
  </g>
</svg>
