<?xml version="1.0" encoding="UTF-8"?>
<svg viewBox="0 0 793.7 1122.5" xmlns="http://www.w3.org/2000/svg" xmlns:xlink="http://www.w3.org/1999/xlink">
 <defs>
  <linearGradient id="a">
   <stop stop-color="#fbb300" offset="0"/>
   <stop stop-color="#fbb300" stop-opacity="0" offset="1"/>
  </linearGradient>
  <radialGradient id="d" cx="-100.53" cy="207.97" r="36.937" gradientTransform="matrix(.97333 0 0 .9018 395.38 67.049)" gradientUnits="userSpaceOnUse" xlink:href="#a"/>
  <radialGradient id="e" cx="-100.53" cy="207.97" r="36.937" gradientTransform="matrix(.97333 0 0 .9018 499.22 77.566)" gradientUnits="userSpaceOnUse" xlink:href="#a"/>
 </defs>
 <g stroke="#000">
  <g fill-rule="evenodd">
   <path d="m307.59 385.75s3.9938 70.921-27.956 141.84c-31.95 70.921-88.454 130.2-84.461 130.2-3.9938 0 70.354 13.895 209.17 20.342 183.71-9.671 166.24-36.46 166.24-36.46-18.415-29.729-143.18-159.21-147.18-265.6" fill="#ff007f" stroke-width="3.594"/>
   <path d="m303.53 370.19s19.044 54.478-13.892 139.03c-66.399 98.04-73.897 118.66-69.903 118.66-3.9938 0 45.791 14.799 184.61 21.055 183.71-9.3836 141.68-36.694 141.68-36.694-81.69-99.726-102.38-145.13-126.68-251.62" fill="#3f007f" stroke-width="3.54"/>
   <path d="m330.03 326.55s-59.722 56.672-20.695 49.935c39.026-6.7367 37.252-6.7367 56.766 10.105 19.513 16.842 12.418-32.841 37.252-20.21 24.835 12.631 18.913-46.754 5.8056-51.905" fill="#ff007f" stroke-width="3.804"/>
   <path d="m327.15 325.67c-3.6133 5.6415 38.664 62.486 66.316-0.82306" fill="#ffc886" stroke-width="3.748"/>
  </g>
  <g transform="matrix(1 0 0 .87775 279.56 142.43)" fill="#ff007f" stroke-width="4">
   <path d="m115.82 395.38a17.972 17.972 0 1 1 -35.944 0 17.972 17.972 0 1 1 35.944 0z"/>
   <path d="m143.78 411.36a17.972 17.972 0 1 1 -35.944 0 17.972 17.972 0 1 1 35.944 0z"/>
   <path d="m139.78 439.32a17.972 17.972 0 1 1 -35.944 0 17.972 17.972 0 1 1 35.944 0z"/>
   <path d="m107.83 451.3a17.972 17.972 0 1 1 -35.944 0 17.972 17.972 0 1 1 35.944 0z"/>
   <path d="m87.863 419.35a17.972 17.972 0 1 1 -35.944 0 17.972 17.972 0 1 1 35.944 0z"/>
   <path d="m115.82 419.35a17.972 17.972 0 1 1 -35.944 0 17.972 17.972 0 1 1 35.944 0z"/>
  </g>
  <g fill-rule="evenodd">
   <g fill="none" stroke-width="3.748">
    <path d="m108.35 398.15c100.51 38.057 191.37-23.234 191.37-23.234"/>
    <path d="m423.69 366.33c100.51 38.057 51.589 148.54 51.589 148.54"/>
    <path d="m307.65 856.36c3.9938-92.897 15.975-182.29 15.975-182.29"/>
    <path d="m371.5 845.84c3.9938-78.875 23.963-168.27 23.963-168.27"/>
    <path d="m107.83 394.82s-14.475-17.955-17.856-9.3669c0.42261 5.2496 13.023 12.095-5.4016 27.786 5.6644 9.7552 23.257-18.419 23.257-18.419z"/>
   </g>
   <g fill="#3f007f" stroke-width="4.773">
    <path d="m305.5 857.74c2.0428-2.5615 10.366-7.5913-6.1672-10.318-36.353-6.2919-45.368-4.3043-50.773 7.0611 6.9782 11.379 50.812 6.587 56.94 3.2571z"/>
    <path d="m425.94 840.97c1.2179-2.9383 7.7748-9.6876-8.9995-8.5655-36.97 2.1812-45.091 6.149-46.961 18.355 10.096 9.4062 51.023-5.1808 55.96-9.7896z"/>
   </g>
  </g>
 </g>
 <g fill="#180030">
  <path d="m105.11 207.93c6.2992 0.95985 13.016 2.5697 19.919 3.4868 21.281 2.0773 34.263-5.5506-1.5944 7.932 7.416-2.9116 6.6753-5.3924 7.174-8.4434 1.0816-2.9752 3.1338-5.9132 5.429-8.9246 26.958-11.695 26.619-11.39 48.824-8.7386 25.163-1.306 30.169-5.6241 0.31659 4.9672 0.36937-3.4469-1.9582-6.5664-1.744-9.9524 26.77-13.041 24.936-9.1784 50.315-12.718 16.572-2.093 49.517-12.78-3.1833 3.1495 1.3196-3.3298 1.9617-6.341 0.90048-9.4724-6.259-6.247 18.89-15.682 37.904-15.338 7.2103 1.5242 12.441 1.2497 21.854-0.26854-28.865 12.228-19.274 8.3541-23.046 0.3001-2.5365-6.8341 26.542-16.16 42.313-13.785 6.6045 0.5004 12.97 0.97981 19.994 0.91919 20.087-6.9056-24.697 14.048-9.8053 2.5574 0.66653-3.1795-1.6151-5.4621-6.0706-7.5824l25.709-9.4108c4.6572 2.2355 7.1661 4.6538 6.9915 7.9295-3.2872 6.4233-21.892 14.11-40.321 16.571-7.5707-0.070892-14.782-0.63564-21.632-1.3579-24.79 0.77631 16.794-11.795 8.9474-5.0416 4.1014 8.711 5.6879 9.1434-25.817 19.144-9.6913 1.2146-15.972 1.3368-23.391-0.088501-22.936 1.6808 19.966-13.809 12.528-3.7424 1.2208 3.1261 1.7213 6.1523-0.63867 9.5398-1.3897 7.983-26.607 13.5-46.248 16.124-23.357 2.922-31.399 3.642 0.18227-6.1758-1.202 3.1535-0.003128 6.4873 1.1536 9.7229-16.996 7.2894-27.697 14.497-51.567 13.772-20.02-2.4782-30.08 1.9867 3.28-9.6511-3.0004 2.797-6.1802 5.7162-6.0762 8.6484-1.4653 3.0315 0.28703 5.8291-6.2453 8.8486-24.126 9.1202-27.766 12.941-50.96 10.304-7.5177-1.1445-15.106-2.5805-21.927-3.8895l26.533-9.3362z"/>
  <path d="m600.34 204.42c-6.2992 0.95985-13.016 2.5697-19.919 3.4868-21.281 2.0774-34.263-5.5506 1.5943 7.9321-7.416-2.9116-6.6753-5.3924-7.174-8.4434-1.0817-2.9752-3.1338-5.9132-5.429-8.9246-26.959-11.695-26.619-11.39-48.824-8.7386-25.164-1.306-30.169-5.6241-0.31665 4.9672-0.36932-3.4469 1.9582-6.5664 1.7441-9.9524-26.77-13.041-24.936-9.1784-50.315-12.717-16.572-2.0931-49.517-12.78 3.1833 3.1495-1.3196-3.3298-1.9617-6.341-0.90051-9.4724 6.2591-6.247-18.89-15.682-37.904-15.338-7.2103 1.5242-12.441 1.2497-21.854-0.26856 28.865 12.228 19.274 8.3541 23.046 0.3001 2.5365-6.8341-26.542-16.16-42.313-13.785-6.6045 0.5004-12.97 0.97981-19.994 0.9192-20.087-6.9056 24.697 14.048 9.8053 2.5574-0.6665-3.1795 1.6151-5.4621 6.0706-7.5824l-25.709-9.4108c-4.6572 2.2355-7.1662 4.6538-6.9915 7.9295 3.2871 6.4233 21.892 14.11 40.321 16.571 7.5707-0.070892 14.782-0.63564 21.632-1.3579 24.79 0.77631-16.794-11.795-8.9474-5.0416-4.1014 8.711-5.6879 9.1434 25.817 19.144 9.6913 1.2146 15.972 1.3368 23.391-0.088501 22.935 1.6808-19.966-13.809-12.528-3.7424-1.2208 3.1261-1.7214 6.1523 0.63864 9.5398 1.3897 7.983 26.607 13.5 46.248 16.124 23.357 2.922 31.399 3.642-0.18225-6.1758 1.202 3.1535 0.003113 6.4873-1.1536 9.7229 16.996 7.2894 27.697 14.497 51.567 13.772 20.02-2.4782 30.08 1.9867-3.28-9.6511 3.0003 2.797 6.1801 5.7162 6.0762 8.6484 1.4653 3.0315-0.28705 5.8292 6.2453 8.8487 24.126 9.1202 27.766 12.941 50.96 10.304 7.5177-1.1445 15.106-2.5805 21.927-3.8895l-26.533-9.3362z"/>
 </g>
 <g stroke="#000">
  <g fill-rule="evenodd">
   <path d="m362.95 127.47l-47.19-31.81-12.418 27.569 62.093 10.603 62.093-23.327-27.321-19.086-37.256 36.051z" fill="#ff007f" stroke-width="3.757"/>
   <path d="m473.26 217.78c0 55.149-64.699 110.42-119.81 110.42-55.114 0-111.83-30.737-111.83-85.886s56.712-113.93 111.83-113.93c55.114 0 119.81 34.242 119.81 89.391z" fill="#ffc886" stroke-width="3.748"/>
  </g>
  <g stroke-width="4">
   <path d="m345.66 235.03a5.6614 4.9154 0 1 1 -11.323 0 5.6614 4.9154 0 1 1 11.323 0z"/>
   <path d="m379.55 235.03a5.6614 4.9154 0 1 1 -11.323 0 5.6614 4.9154 0 1 1 11.323 0z"/>
  </g>
  <path d="m311.28 256.6c28.381 73.31 74.542 60.279 92.29 8.0372" fill="none" stroke-width="3.783"/>
 </g>
 <g fill="#180030">
  <path d="m557.91 255.82c-5.5025-0.50391-11.519-0.4749-17.515-1.1572-18.292-2.828-27.185-13.145-0.69037 8.024-5.4482-4.4972-4.1978-6.7252-3.8367-9.7855-0.14471-3.1196-1.109-6.4237-2.2575-9.8538-19.522-17.421-19.317-17.05-38.526-19.532-20.671-6.9781-23.749-12.286-1.5299 4.726 0.57001-3.4134 3.3077-5.8978 3.9917-9.2171-19.022-18.678-18.475-14.53-38.757-23.715-13.3-5.7866-38.076-23.594 1.8546 3.7653-0.25299-3.5161-0.021667-6.5706 1.662-9.3542 6.8162-4.6122-11.771-19.439-27.73-23.426-6.4068-0.16573-10.703-1.6192-18.173-5.224 20.978 18.369 13.96 12.448 19.16 5.5255 3.8586-6.025-18.038-21.639-31.806-22.928-5.6403-1.0171-11.075-2-16.924-3.6544-15.007-11.234 17.035 19.18 7.5328 4.6978 0.25382-3.2226 2.7399-4.909 6.9992-5.9449l-19.061-14.931c-4.457 1.1013-7.1674 2.8673-7.8563 6.071 1.1071 6.9512 14.678 18.602 29.434 25.167 6.3373 1.6514 12.5 2.7442 18.402 3.6028 20.495 6.3817-11.013-15.208-6.1838-6.9025-5.6431 7.4824-7.0775 7.5397 16.671 24.357 7.7798 3.3749 12.991 4.9196 19.547 5.2283 18.716 6.834-13.147-17.875-9.5039-6.4611-1.8156 2.7422-3.0045 5.5516-1.8977 9.3598-0.87412 8.0267 18.769 19.084 34.495 26.081 18.751 8.1286 25.281 10.651 1.4215-6.0068 0.1998 3.3191-1.6504 6.267-3.4404 9.1295 12.329 10.902 19.424 20.295 39.534 25.018 17.342 2.1544 24.602 8.7525-0.27862-10.067 1.7917 3.3833 3.702 6.9254 2.8681 9.7341 0.45062 3.2611-1.7248 5.5653 2.9583 9.966 17.814 14.29 19.879 18.808 39.91 21.53 6.5666 0.60236 13.266 0.93921 19.293 1.2244l-19.768-15.046z"/>
  <path d="m163.13 303.39c6.002-1.9333 12.736-3.4871 19.237-5.7224 19.613-7.5406 26.511-19.844 3.1377 7.5691 4.7638-5.7762 2.7092-7.5996 1.4032-10.461-0.75807-3.0514-0.65445-6.4964-0.38214-10.112 16.685-21.96 16.565-21.547 37.305-28.995 21.048-12.175 22.923-18.111 3.1037 4.1627-1.6436-3.1472-5.4363-4.8273-7.1797-7.8536 15.755-23.043 16.366-18.892 36.33-33.096 13.16-9.0858 35.603-32.8-0.96275 4.1246-0.75398-3.4628-1.9132-6.3524-4.616-8.5986-8.979-2.6632 7.4258-21.871 24.089-29.918 7.1125-1.8444 11.486-4.3778 18.773-9.8235-18.032 23.258-11.933 15.694-19.788 10.374-6.0896-4.8053 13.781-25.644 28.791-30.508 6.0047-2.4652 11.79-4.8435 17.839-7.979 13.462-14.796-13.386 23.005-7.0348 6.518-1.234-3.046-4.5102-4.0214-9.5765-3.9023l16.904-19.433c5.3067-0.10792 8.8571 0.8853 10.572 3.7987 0.81216 7.0054-10.922 21.827-25.48 32.047-6.5968 3.2612-13.164 5.937-19.508 8.3179-21.027 11.552 7.8254-17.585 4.8768-8.293 8.5141 5.7439 10.134 5.4221-11.453 27.91-7.7011 5.3051-13.07 8.1672-20.307 10.189-18.905 11.522 9.4247-20.722 8.7181-8.7394 2.838 2.1715 4.9953 4.5726 4.8811 8.542 3.3439 7.5234-15.352 23.368-30.867 34.261-18.563 12.781-25.118 16.934-3.3601-5.4284 0.75537 3.2586 3.6927 5.6195 6.5376 7.914-10.567 13.772-15.728 24.71-36.813 34.558-18.749 6.6401-24.918 14.922-2.6571-9.7976-1.0051 3.739-2.096 7.6627-0.33568 10.156 0.45792 3.2685 3.5691 4.9222-0.36807 10.404-15.698 18.487-16.674 23.393-38.263 31.288-7.1625 2.3082-14.552 4.3949-21.205 6.2547l17.66-19.73z"/>
  <path d="m130.68 255.82c6.3676-0.50391 13.33-0.4749 20.269-1.1572 21.168-2.828 31.459-13.145 0.79889 8.024 6.3047-4.4972 4.8578-6.7252 4.4399-9.7855 0.1675-3.1196 1.2834-6.4237 2.6124-9.8538 22.592-17.421 22.354-17.05 44.583-19.532 23.921-6.9781 27.482-12.286 1.7705 4.726-0.65962-3.4134-3.8277-5.8978-4.6193-9.2171 22.012-18.678 21.379-14.53 44.85-23.715 15.39-5.7866 44.062-23.594-2.1462 3.7653 0.29277-3.5161 0.02507-6.5706-1.9233-9.3542-7.8878-4.6122 13.622-19.439 32.09-23.426 7.414-0.16573 12.386-1.6192 21.03-5.224-24.276 18.369-16.154 12.448-22.173 5.5255-4.4652-6.025 20.873-21.639 36.806-22.928 6.527-1.0171 12.816-2 19.584-3.6544 17.366-11.234-19.713 19.18-8.7171 4.6978-0.29373-3.2226-3.1707-4.909-8.0996-5.9449l22.058-14.931c5.1577 1.1013 8.2942 2.8673 9.0914 6.071-1.2811 6.9512-16.986 18.602-34.061 25.167-7.3336 1.6514-14.466 2.7442-21.296 3.6028-23.717 6.3817 12.744-15.208 7.1559-6.9025 6.5303 7.4824 8.1902 7.5397-19.292 24.357-9.003 3.3749-15.033 4.9196-22.62 5.2283-21.658 6.834 15.214-17.875 10.998-6.4611 2.101 2.7422 3.4768 5.5516 2.196 9.3598 1.0115 8.0267-21.72 19.084-39.918 26.081-21.699 8.1286-29.255 10.651-1.645-6.0068-0.23122 3.3191 1.9099 6.267 3.9812 9.1295-14.267 10.902-22.478 20.295-45.749 25.018-20.068 2.1544-28.469 8.7525 0.32242-10.067-2.0734 3.3833-4.284 6.9254-3.319 9.7341-0.52144 3.2611 1.9961 5.5653-3.4233 9.966-20.615 14.29-23.004 18.808-46.185 21.53-7.599 0.60236-15.352 0.93921-22.327 1.2244l22.876-15.046z"/>
  <path d="m429.15 221.54c-2.3866-1.0221-5.0642-1.8436-7.6491-3.0255-7.7988-3.9868-10.542-10.492-1.2476 4.0018-1.8943-3.0539-1.0773-4.0179-0.55795-5.5306 0.30142-1.6132 0.26022-3.4347 0.15192-5.346-6.6343-11.61-6.5866-11.392-14.833-15.33-8.3694-6.4368-9.1149-9.5753-1.2341 2.2009 0.65356-1.664 2.1616-2.5522 2.8549-4.1522-6.2645-12.183-6.5078-9.9884-14.446-17.498-5.2326-4.8037-14.157-17.342 0.38284 2.1807 0.29977-1.8308 0.76074-3.3586 1.8354-4.5461 3.5703-1.408-2.9527-11.564-9.5785-15.818-2.8282-0.97514-4.5673-2.3146-7.4645-5.1937 7.1702 12.297 4.745 8.2974 7.8682 5.485 2.4214-2.5406-5.4799-13.558-11.448-16.13-2.3876-1.3034-4.6881-2.5608-7.0934-4.2185-5.3528-7.8227 5.3226 12.163 2.7973 3.4461 0.49063-1.6105 1.7934-2.1261 3.8079-2.0632l-6.7213-10.274c-2.1101-0.057068-3.5218 0.46806-4.2036 2.0084-0.32294 3.7038 4.3428 11.54 10.131 16.943 2.6231 1.7242 5.2342 3.1389 7.7568 4.3977 8.3609 6.1077-3.1116-9.2974-1.9392-4.3845-3.3854 3.0368-4.0297 2.8667 4.554 14.756 3.0621 2.8049 5.1971 4.318 8.0747 5.3869 7.5172 6.0915-3.7475-10.956-3.4666-4.6206-1.1285 1.1481-1.9863 2.4175-1.9409 4.5162-1.3296 3.9776 6.1045 12.355 12.274 18.114 7.3811 6.7575 9.9875 8.9532 1.3361-2.87-0.30038 1.7228-1.4684 2.9711-2.5995 4.1842 4.2015 7.2812 6.2538 13.064 14.638 18.271 7.4553 3.5106 9.9083 7.8893 1.0566-5.18 0.39966 1.9768 0.8334 4.0513 0.13348 5.3698-0.1821 1.7281-1.4192 2.6024 0.14633 5.5007 6.2422 9.7739 6.6301 12.368 15.214 16.542 2.848 1.2203 5.7864 2.3236 8.4316 3.3069l-7.0221-10.431z"/>
 </g>
 <g stroke-width="4.01">
  <path d="m331.48 254.6a33.947 31.55 0 1 1 -67.894 0 33.947 31.55 0 1 1 67.894 0z" fill="url(#d)"/>
  <path d="m435.32 265.11a33.947 31.55 0 1 1 -67.894 0 33.947 31.55 0 1 1 67.894 0z" fill="url(#e)"/>
 </g>
</svg>
