<svg xmlns="http://www.w3.org/2000/svg" xml:space="preserve" viewBox="0 0 612 612">
  <linearGradient id="a" x1="425.3" x2="490.3" y1="-5.3" y2="271.1" gradientTransform="translate(-178 1)" gradientUnits="userSpaceOnUse">
    <stop offset="0" stop-color="#0088BC"/>
    <stop offset="1" stop-color="#f1ded5"/>
  </linearGradient>
  <path fill="url(#a)" d="M-178 1h792v456h-792z"/>
  <radialGradient id="b" cx="595.3" cy="184.4" r="55.7" fx="595.3" fy="184.4" gradientTransform="matrix(1.01295 .00537 -.0057 1.07566 -122 83)" gradientUnits="userSpaceOnUse">
    <stop offset="1" stop-color="#f4bcb0"/>
    <stop offset="1" stop-color="#fbac00"/>
  </radialGradient>
  <circle cx="480.3" cy="285.2" r="55.7" fill="url(#b)"/>
  <linearGradient id="c" x1="217.2" x2="217.2" y1="110.9" y2="263" gradientTransform="translate(-178 1)" gradientUnits="userSpaceOnUse">
    <stop offset="0" stop-color="#fff"/>
    <stop offset="1" stop-color="#DBEFF9"/>
  </linearGradient>
  <path fill="url(#c)" d="M-101 254c-16-4-27-21-24-37 3-17 20-28 37-25-1-11 7-21 17-23 11-2 21 4 25 14-1-3-3-18 6-33 10-15 24-19 27-19 2-11 11-18 20-19 12-1 22 7 25 19 16-6 34-1 44 12 9 11 11 26 5 39 7-11 20-17 32-14 13 2 23 13 25 26 1-1 14-8 27 0 10 5 15 16 13 27 5-7 14-9 19-6 6 3 9 12 7 19-7 25-84 28-84 28s-48 2-99 2c-47-1-71-3-82-4a590 590 0 0 1-40-6z" opacity=".7"/>
  <linearGradient id="d" x1="663.6" x2="663.6" y1="29.9" y2="105.9" gradientTransform="translate(-178 1)" gradientUnits="userSpaceOnUse">
    <stop offset="0" stop-color="#fff"/>
    <stop offset="1" stop-color="#DBEFF9"/>
  </linearGradient>
  <path fill="url(#d)" d="M395 102c-11-2-18-11-16-19s13-14 24-12c-1-6 4-11 11-12s14 2 16 7c0-1-2-9 4-16 6-8 16-9 18-10 1-5 7-9 13-9 7-1 14 3 16 9 10-3 22 0 29 6 6 6 7 13 3 20 5-6 13-9 21-7 9 1 15 6 16 13 1-1 10-4 18 0 6 2 9 8 9 13 3-3 8-4 12-3 4 2 5 6 4 10-4 12-54 14-54 14l-65 1a642 642 0 0 1-79-5z" opacity=".8"/>
  <linearGradient id="e" x1="267.4" x2="267.4" y1="55.9" y2="122" gradientTransform="matrix(-1.1403 0 0 1 683 1)" gradientUnits="userSpaceOnUse">
    <stop offset="0" stop-color="#fff"/>
    <stop offset="1" stop-color="#DBEFF9"/>
  </linearGradient>
  <path fill="url(#e)" d="M441 118c7-1 12-8 11-16-2-7-9-12-17-11 1-4-3-9-7-10-5 0-10 2-11 7 0-2 1-8-3-15-4-6-11-8-12-8-1-5-5-8-9-8-5-1-10 3-11 8-7-3-15 0-20 5-4 5-5 12-2 17-3-4-9-7-14-6-6 1-11 6-12 11 0 0-6-3-12 0-4 3-6 7-5 12-3-3-6-4-9-3-3 2-4 6-3 9 3 11 37 12 37 12a992 992 0 0 0 81-1l18-3z" opacity=".9"/>
  <linearGradient id="f" x1="248.5" x2="248.5" y1="327.5" y2="383.6" gradientTransform="translate(-178 1)" gradientUnits="userSpaceOnUse">
    <stop offset="0" stop-color="#fff"/>
    <stop offset="1" stop-color="#DBEFF9"/>
  </linearGradient>
  <path fill="url(#f)" d="M6 381c-8-2-13-8-11-14 1-6 9-10 17-9-1-4 3-8 8-9s10 2 11 5c0-1-1-6 3-12 5-5 11-6 13-7 1-4 4-6 9-7 5 0 10 3 11 7 8-2 16 0 21 5 4 4 5 9 2 14 3-4 9-6 15-5s11 5 12 9c0 0 6-2 12 0 4 2 7 6 6 10 2-2 6-3 9-2s4 5 3 7c-3 9-39 10-39 10l-46 1-38-1-18-2z" opacity=".8"/>
  <linearGradient id="g" x1="77" x2="77" y1="299.9" y2="355.9" gradientTransform="translate(-178 1)" gradientUnits="userSpaceOnUse">
    <stop offset="0" stop-color="#fff"/>
    <stop offset="1" stop-color="#DBEFF9"/>
  </linearGradient>
  <path fill="url(#g)" d="M-166 353c-7-1-12-8-11-14 2-6 9-10 17-9 0-4 3-8 8-8 5-1 10 1 12 5-1-1-2-7 3-12 4-6 11-7 12-7 1-4 5-7 9-7 6-1 11 2 12 7 7-3 16-1 20 4 4 4 5 10 3 14 3-4 9-6 15-5s10 5 11 10c0 0 7-3 13 0 4 2 6 6 6 10 2-3 6-4 8-3 3 2 4 5 3 7-3 10-38 11-38 11h-46a390 390 0 0 1-57-3z" opacity=".8"/>
  <linearGradient id="h" x1="598.5" x2="598.5" y1="288.9" y2="345" gradientTransform="translate(-178 1)" gradientUnits="userSpaceOnUse">
    <stop offset="0" stop-color="#fff"/>
    <stop offset="1" stop-color="#DBEFF9"/>
  </linearGradient>
  <path fill="url(#h)" d="M356 342c-8-1-13-7-11-14 1-6 9-10 17-9-1-4 3-8 8-8 5-1 10 1 11 5 0-1-1-7 3-12 5-6 11-7 13-7 1-4 4-7 9-7 5-1 10 2 11 7 8-3 16-1 21 4 4 4 5 10 2 15 3-5 9-7 15-6s11 5 12 10c0 0 6-3 12 0 4 2 7 6 6 10 2-3 6-4 9-2 3 1 4 4 3 6-3 10-39 11-39 11l-46 1-38-2-18-2z" opacity=".8"/>
  <linearGradient id="i" x1="532.9" x2="532.9" y1="293.3" y2="369.4" gradientTransform="translate(-178 1)" gradientUnits="userSpaceOnUse">
    <stop offset="0" stop-color="#fff"/>
    <stop offset="1" stop-color="#DBEFF9"/>
  </linearGradient>
  <path fill="url(#i)" d="M259 365c-11-2-18-10-16-18 2-9 13-15 25-13 0-5 5-10 12-11 7-2 14 1 17 7-1-2-2-10 4-17 7-7 17-9 19-9 1-6 7-9 13-10 8 0 15 4 17 10 11-3 24-1 31 6 5 5 7 13 3 19 5-5 13-8 22-7s16 7 17 13c0 0 10-4 18 0 7 3 10 8 9 14 4-4 9-5 13-3 4 1 6 6 5 9-5 13-57 14-57 14l-68 1a705 705 0 0 1-84-5z" opacity=".8"/>
  <linearGradient id="j" x1="399.9" x2="399.9" y1="288" y2="488.4" gradientTransform="matrix(-1 0 0 1 618 1)" gradientUnits="userSpaceOnUse">
    <stop offset="0" stop-color="#efb5ad"/>
    <stop offset="1" stop-color="#4db1e6"/>
  </linearGradient>
  <path fill="url(#j)" d="m614 380-10-12c0 1 1 12-5 20-6 7-13 6-14 5-2 1-15 2-24-11l-6-14-16 12a370 370 0 0 0-104-91c-5 12-19 42-45 63a91 91 0 0 1-60 20c-3-1-9-4-14-12-3-3-4-7-5-10-9 13-23 31-43 46-24 18-76 27-82 20-9-9-8-24-8-26l-25 31a251 251 0 0 0-95-66c-12 12-49 48-92 56-20 3-42 10-52-8-8-13-5-34-3-44a372 372 0 0 0-66 62c-6-2-22-13-22-13l-1 81 792-4"/>
  <linearGradient id="k" x1="472.5" x2="396" y1="230.3" y2="467" gradientTransform="translate(-178 1)" gradientUnits="userSpaceOnUse">
    <stop offset="0" stop-color="#BACFEB"/>
    <stop offset="1" stop-color="#5773c3"/>
  </linearGradient>
  <path fill="url(#k)" d="m-178 393 12-10s-1 8 5 14c6 5 13 4 13 4 3 0 15 1 23-8 4-4 6-8 6-10l16 9A315 315 0 0 1-2 328a113 113 0 0 0 102 58 30 30 0 0 0 19-15c9 9 22 21 41 32 24 12 74 19 80 14 9-7 8-17 8-18l24 21a242 242 0 0 1 93-46c12 8 47 34 89 39 20 2 41 7 51-5 8-10 5-25 3-31a347 347 0 0 1 64 43c6-2 14-4 22-9 8-6 20-10 20-11v68l-792-3"/>
  <linearGradient id="l" x1="396" x2="396" y1="392.8" y2="555.4" gradientTransform="translate(-178 1)" gradientUnits="userSpaceOnUse">
    <stop offset="0" stop-color="#3fb0c0"/>
    <stop offset="1" stop-color="#5C892A"/>
  </linearGradient>
  <path fill="url(#l)" d="M-177 419c19-9 43-17 71-22 81-13 136 14 225 36 43 10 101 16 216 27 123 12 279 20 279 20v39s-779 34-792 37z"/>
  <linearGradient id="m" x1="776.3" x2="513.1" y1="468.8" y2="489" gradientTransform="translate(-178 1)" gradientUnits="userSpaceOnUse">
    <stop offset="0" stop-color="#83cd9a"/>
    <stop offset="1" stop-color="#86bc91"/>
  </linearGradient>
  <path fill="url(#m)" d="M-177 454c70 21 191 53 334 24l37-9c131-31 420-21 420-21v96S77 648-176 500c-2-34 0-4-1-40v-6z"/>
  <linearGradient id="n" x1="396.5" x2="396.5" y1="500.7" y2="612" gradientTransform="translate(-178 1)" gradientUnits="userSpaceOnUse">
    <stop offset="0" stop-color="#c0e595"/>
    <stop offset="1" stop-color="#61823E"/>
  </linearGradient>
  <path fill="url(#n)" d="M614 501a3309 3309 0 0 1-791 0v112h791z"/>
</svg>
