 <svg width="24" height="24" viewBox="0 0 24 24" fill="none" xmlns="http://www.w3.org/2000/svg">
      <path
        d="M12 15.9A3.9 3.9 0 1 1 12 8a3.9 3.9 0 0 1 0 7.8Zm0-6.3A2.4 2.4 0 0 0 9.6 12c0 1.3 1 2.4 2.4 2.4 1.3 0 2.4-1 2.4-2.4 0-1.3-1-2.4-2.4-2.4Zm0 11.6h-1.4a.7.7 0 0 1-.7-.7l-.2-1.4a7 7 0 0 1-1.2-.6l-1.2.9c-.2.2-.6.2-.8 0l-1-.9-1-1a.7.7 0 0 1 0-1l1-1-.6-1.4-1.4-.2a.7.7 0 0 1-.6-.6v-2.8c0-.3.3-.5.6-.6l1.4-.2.6-1.2-.9-1.2a.7.7 0 0 1 0-.8l.9-1v-.1l1-.9a1 1 0 0 1 1 0l1 .9 1.4-.5.2-1.4c0-.4.3-.6.6-.6l1.3-.1h1.5c.3.1.5.3.6.7l.2 1.4 1.2.5 1.2-.8c.2-.2.6-.2.8 0l1 .9h.1l1 1v.9l-1 1.2.5 1.2 1.4.2c.4 0 .6.3.6.7l.1 1.3v1.4c0 .4-.3.6-.7.7l-1.4.2a7 7 0 0 1-.5 1.2l.8 1.2c.2.2.2.6 0 .8l-.9 1v.1l-1 .9c-.3.2-.6.2-.9 0l-1.2-.9-1.2.5-.2 1.4c0 .3-.3.6-.7.6l-1.3.1Zm-.7-1.4h1.3l.2-1.4c0-.3.3-.5.5-.6.7-.1 1.3-.3 1.8-.7h.8l1 .9.5-.4.1-.1.4-.5-.8-1a.7.7 0 0 1 0-.8c.3-.6.6-1.1.7-1.7 0-.3.3-.6.6-.6l1.4-.2v-1.3l-1.4-.2a.7.7 0 0 1-.5-.6 6 6 0 0 0-.7-1.7l-.1-.2v-.6l1-1.1a8 8 0 0 0-1-1l-1.1.8c-.3.2-.6.2-.9 0l-1.7-.7a.7.7 0 0 1-.5-.6l-.2-1.3h-1.3l-.2 1.3c0 .3-.3.6-.6.6a5 5 0 0 0-1.7.7h-.8l-1-.9a8 8 0 0 0-1 1l.8 1c.2.3.2.6 0 .9a5 5 0 0 0-.7 1.7c0 .3-.3.5-.6.6l-1.4.1v1.4l1.4.2c.3 0 .5.2.6.6.1.6.3 1.1.7 1.7v.6l-.1.2-.8 1 .4.5h.1l.5.5 1-.8a1 1 0 0 1 1 0c.4.3 1 .6 1.6.7.2 0 .5.3.5.6l.2 1.4Z"
        fill="#f4ebc2"
      />
</svg>
